<svg width="97" height="97" viewBox="0 0 97 97" fill="none" xmlns="http://www.w3.org/2000/svg">
<path d="M68.8935 62.8204C63.7167 62.3879 58.703 60.7993 54.2221 58.1718C49.7412 55.5443 45.9075 51.9449 43.0035 47.6389C40.0995 43.333 38.1994 38.4304 37.4433 33.2926C36.6872 28.1548 37.0943 22.9129 38.6347 17.9534C38.7256 17.6587 38.7241 17.3433 38.6302 17.0495C38.5363 16.7558 38.3546 16.4978 38.1096 16.3105C37.8647 16.1231 37.5681 16.0153 37.2599 16.0015C36.9518 15.9877 36.6468 16.0687 36.386 16.2335C31.7698 18.8915 27.8276 22.576 24.8646 27.0016C21.9016 31.4272 19.9973 36.4752 19.2993 41.7546C18.6012 47.034 19.1282 52.4032 20.8393 57.4464C22.5504 62.4896 25.3997 67.0714 29.1666 70.837C32.9335 74.6025 37.5169 77.4509 42.5618 79.1614C47.6067 80.8719 52.9778 81.3986 58.2591 80.7008C63.5403 80.003 68.5901 78.0995 73.0172 75.1375C77.4444 72.1755 81.1301 68.2346 83.789 63.62C83.9434 63.3597 84.0159 63.0589 83.9971 62.7568C83.9782 62.4548 83.8689 62.1653 83.6834 61.9262C83.4979 61.687 83.2446 61.5091 82.9567 61.4157C82.6687 61.3223 82.3593 61.3176 82.0686 61.4023C77.8083 62.7142 73.3355 63.1956 68.8935 62.8204Z" fill="#FFDF24"/>
</svg>
