<svg width="97" height="97" viewBox="0 0 97 97" fill="none" xmlns="http://www.w3.org/2000/svg">
<path d="M48.5 74.2656C62.73 74.2656 74.2656 62.73 74.2656 48.5C74.2656 34.27 62.73 22.7344 48.5 22.7344C34.27 22.7344 22.7344 34.27 22.7344 48.5C22.7344 62.73 34.27 74.2656 48.5 74.2656Z" fill="#FFDF24"/>
<path d="M48.5 7.57812V16.6719" stroke="#FFDF24" stroke-width="3" stroke-miterlimit="10" stroke-linecap="round"/>
<path d="M89.4219 48.5H80.3281" stroke="#FFDF24" stroke-width="3" stroke-miterlimit="10" stroke-linecap="round"/>
<path d="M16.6719 48.5H7.57812" stroke="#FFDF24" stroke-width="3" stroke-miterlimit="10" stroke-linecap="round"/>
<path d="M77.4333 19.5669L71.007 25.9931" stroke="#FFDF24" stroke-width="3" stroke-miterlimit="10" stroke-linecap="round"/>
<path d="M25.993 25.9931L19.5667 19.5669" stroke="#FFDF24" stroke-width="3" stroke-miterlimit="10" stroke-linecap="round"/>
<path d="M61.0039 70.0977C56.0682 69.7788 51.2835 68.2677 47.0599 65.694C42.8363 63.1203 39.2999 59.5606 36.7539 55.3203H23.6741C24.745 59.1996 26.7097 62.7741 29.4108 65.7574C32.112 68.7407 35.4743 71.0497 39.2285 72.4995C42.9827 73.9493 47.0243 74.4996 51.0294 74.1062C55.0346 73.7128 58.8919 72.3866 62.2922 70.2341C61.8527 70.1886 61.4435 70.128 61.0039 70.0977Z" fill="#E0E0E0"/>
<path d="M38.6484 55.3203H20.9611" stroke="#B9C1C6" stroke-width="4" stroke-miterlimit="10" stroke-linecap="round"/>
<path d="M11.4278 62.8984H29.1303" stroke="#B9C1C6" stroke-width="4" stroke-miterlimit="10" stroke-linecap="round"/>
<path d="M7.35077 70.4766H81.6316" stroke="#B9C1C6" stroke-width="4" stroke-miterlimit="10" stroke-linecap="round"/>
<path d="M52.2739 78.0547H84.3446" stroke="#A5A9AA" stroke-width="4" stroke-miterlimit="10" stroke-linecap="round"/>
<path d="M7.35077 78.0547H41.3765" stroke="#B9C1C6" stroke-width="4" stroke-miterlimit="10" stroke-linecap="round"/>
<path d="M40.0125 85.6328H69.3399" stroke="#A5A9AA" stroke-width="4" stroke-miterlimit="10" stroke-linecap="round"/>
<path d="M10.0638 85.6328H30.4944" stroke="#A5A9AA" stroke-width="4" stroke-miterlimit="10" stroke-linecap="round"/>
<path d="M37.2995 62.8984H46.8177" stroke="#B9C1C6" stroke-width="4" stroke-miterlimit="10" stroke-linecap="round"/>
</svg>
