<svg width="91" height="81" viewBox="0 0 91 81" fill="none" xmlns="http://www.w3.org/2000/svg">
<path d="M65.644 51.0393C60.3875 50.6001 55.2966 48.9871 50.7468 46.3191C46.197 43.6512 42.3042 39.9964 39.3556 35.6242C36.4069 31.2521 34.4776 26.274 33.7099 21.0572C32.9421 15.8404 33.3555 10.5178 34.9196 5.48197C35.0119 5.18277 35.0103 4.86247 34.915 4.56421C34.8197 4.26594 34.6352 4.00404 34.3865 3.81378C34.1377 3.62352 33.8366 3.51403 33.5237 3.50006C33.2108 3.48609 32.9011 3.56831 32.6363 3.73566C27.9491 6.43453 23.9462 10.1757 20.9376 14.6694C17.929 19.1631 15.9955 24.2887 15.2867 29.6494C14.5779 35.01 15.113 40.4618 16.8504 45.5826C18.5878 50.7033 21.481 55.3556 25.3058 59.1791C29.1307 63.0027 33.7846 65.8948 38.9071 67.6316C44.0296 69.3684 49.4834 69.9033 54.8459 69.1948C60.2084 68.4862 65.3358 66.5534 69.8311 63.5458C74.3263 60.5383 78.0688 56.5367 80.7686 51.8512C80.9254 51.5868 80.999 51.2814 80.9798 50.9747C80.9607 50.668 80.8497 50.3741 80.6614 50.1313C80.473 49.8884 80.2158 49.7078 79.9234 49.613C79.631 49.5181 79.3168 49.5133 79.0217 49.5993C74.6959 50.9314 70.1543 51.4202 65.644 51.0393Z" fill="#FFDF24"/>
<path d="M75.9828 58.3916C68.5367 58.3916 59.3367 58.3916 59.0597 58.3916C54.0497 58.0702 49.1929 56.5473 44.9056 53.9534C40.6184 51.3596 37.0288 47.7721 34.4444 43.4985H15.9828C17.6222 49.545 20.8594 55.0466 25.3594 59.4338C29.8594 63.821 35.4585 66.9344 41.5773 68.4516C47.6961 69.9689 54.1122 69.8348 60.1613 68.0634C66.2104 66.292 71.6727 62.9475 75.9828 58.3763V58.3916Z" fill="#E0E0E0"/>
<path d="M35.9828 43.4985H13.9828" stroke="#B9C1C6" stroke-width="4" stroke-miterlimit="10" stroke-linecap="round"/>
<path d="M11.9828 51.4985H26.9828" stroke="#B9C1C6" stroke-width="4" stroke-miterlimit="10" stroke-linecap="round"/>
<path d="M8.98282 58.4985H79.9828" stroke="#B9C1C6" stroke-width="4" stroke-miterlimit="10" stroke-linecap="round"/>
<path d="M49.9828 66.4985H82.9828" stroke="#A5A9AA" stroke-width="4" stroke-miterlimit="10" stroke-linecap="round"/>
<path d="M15.9828 66.4985H38.9828" stroke="#B9C1C6" stroke-width="4" stroke-miterlimit="10" stroke-linecap="round"/>
<path d="M37.9828 73.4985H66.9828" stroke="#A5A9AA" stroke-width="4" stroke-miterlimit="10" stroke-linecap="round"/>
<path d="M20.9828 73.4985H27.9828" stroke="#A5A9AA" stroke-width="4" stroke-miterlimit="10" stroke-linecap="round"/>
<path d="M34.9828 51.4985H44.9828" stroke="#B9C1C6" stroke-width="4" stroke-miterlimit="10" stroke-linecap="round"/>
</svg>
