<svg width="99" height="91" viewBox="0 0 99 91" fill="none" xmlns="http://www.w3.org/2000/svg">
<g clip-path="url(#clip0_221_5067)">
<path d="M61.1375 61.5694C73.7403 61.5694 83.9569 51.3528 83.9569 38.75C83.9569 26.1472 73.7403 15.9307 61.1375 15.9307C48.5347 15.9307 38.3181 26.1472 38.3181 38.75C38.3181 51.3528 48.5347 61.5694 61.1375 61.5694Z" fill="#FFDF24"/>
<path d="M61.1375 2.5V10.5475" stroke="#FFDF24" stroke-width="3" stroke-miterlimit="10" stroke-linecap="round"/>
<path d="M61.1375 66.9526V75.0001" stroke="#FFDF24" stroke-width="3" stroke-miterlimit="10" stroke-linecap="round"/>
<path d="M24.8875 38.75H32.9531" stroke="#FFDF24" stroke-width="3" stroke-miterlimit="10" stroke-linecap="round"/>
<path d="M89.34 38.75H97.3875" stroke="#FFDF24" stroke-width="3" stroke-miterlimit="10" stroke-linecap="round"/>
<path d="M35.5087 13.1211L41.2 18.8123" stroke="#FFDF24" stroke-width="3" stroke-miterlimit="10" stroke-linecap="round"/>
<path d="M81.075 58.6875L86.7663 64.3787" stroke="#FFDF24" stroke-width="3" stroke-miterlimit="10" stroke-linecap="round"/>
<path d="M35.5087 64.3787L41.2 58.6875" stroke="#FFDF24" stroke-width="3" stroke-miterlimit="10" stroke-linecap="round"/>
<path d="M81.075 18.8123L86.7663 13.1211" stroke="#FFDF24" stroke-width="3" stroke-miterlimit="10" stroke-linecap="round"/>
<path d="M31.5937 27.6939C37.3713 27.6822 43.0422 29.2497 47.9936 32.2269C52.945 35.2041 56.9887 39.4779 59.6875 44.5864C62.9938 42.6533 66.7013 41.5082 70.5219 41.2401C74.3425 40.972 78.1735 41.588 81.7174 43.0405C85.2613 44.4929 88.4228 46.7426 90.9564 49.6149C93.49 52.4872 95.3274 55.9048 96.3261 59.6023C97.3248 63.2998 97.4579 67.1777 96.715 70.935C95.9721 74.6922 94.3732 78.2277 92.0424 81.2669C89.7117 84.3061 86.7118 86.7672 83.2758 88.4591C79.8398 90.1511 76.06 91.0283 72.23 91.0227L31.5937 91.1314C23.1814 91.1314 15.1136 87.7896 9.16521 81.8412C3.21679 75.8928 -0.125 67.825 -0.125 59.4127C-0.125 51.0003 3.21679 42.9325 9.16521 36.9841C15.1136 31.0357 23.1814 27.6939 31.5937 27.6939Z" fill="url(#paint0_linear_221_5067)"/>
<path d="M96.1766 72.8023C99.8803 59.546 92.1364 45.7972 78.8801 42.0935C65.6239 38.3897 51.875 46.1336 48.1713 59.3899C44.4676 72.6462 52.2115 86.395 65.4678 90.0988C78.7241 93.8025 92.4729 86.0586 96.1766 72.8023Z" fill="url(#paint1_linear_221_5067)"/>
</g>
<defs>
<linearGradient id="paint0_linear_221_5067" x1="23.5825" y1="93.832" x2="61.8081" y2="44.3327" gradientUnits="userSpaceOnUse">
<stop stop-color="#F2F2F2"/>
<stop offset="1" stop-color="#CFCFCF"/>
</linearGradient>
<linearGradient id="paint1_linear_221_5067" x1="82.3473" y1="57.233" x2="53.472" y2="82.3812" gradientUnits="userSpaceOnUse">
<stop offset="0.02" stop-color="white"/>
<stop offset="1" stop-color="white" stop-opacity="0"/>
</linearGradient>
<clipPath id="clip0_221_5067">
<rect width="99" height="91" fill="white"/>
</clipPath>
</defs>
</svg>
