<svg width="103" height="94" viewBox="0 0 103 94" fill="none" xmlns="http://www.w3.org/2000/svg">
<g clip-path="url(#clip0_240_5428)">
<path d="M84.9219 34.4907C81.102 34.1815 77.4003 33.0172 74.0904 31.0839C70.7805 29.1506 67.947 26.4977 65.7992 23.3212C63.6514 20.1447 62.2442 16.5258 61.6816 12.732C61.119 8.93806 61.4154 5.06614 62.5489 1.40229C62.6067 1.19374 62.6021 0.972807 62.5357 0.766842C62.4693 0.560876 62.344 0.378916 62.1753 0.24348C62.0066 0.108043 61.802 0.0250763 61.5867 0.00484611C61.3714 -0.0153841 61.1549 0.0280107 60.964 0.12966C57.536 2.07466 54.6034 4.78599 52.3949 8.05212C50.1864 11.3182 48.7618 15.0509 48.2321 18.9588C47.7025 22.8667 48.0821 26.8443 49.3414 30.5812C50.6008 34.3181 52.7057 37.7132 55.4921 40.5019C58.2785 43.2905 61.671 45.3971 65.4048 46.6575C69.1387 47.9178 73.1131 48.2978 77.0179 47.7677C80.9227 47.2376 84.6523 45.8118 87.9158 43.6015C91.1793 41.3913 93.8885 38.4563 95.8319 35.0256C95.9518 34.8336 96.01 34.6094 95.9986 34.3833C95.9872 34.1571 95.9068 33.9399 95.7681 33.761C95.6295 33.5821 95.4394 33.45 95.2234 33.3826C95.0074 33.3152 94.776 33.3157 94.5603 33.3841C91.4471 34.3636 88.1758 34.7392 84.9219 34.4907Z" fill="#FFDF24"/>
<path d="M36.0221 26C41.829 25.9982 47.5263 27.5843 52.5003 30.5874C57.4743 33.5905 61.5364 37.8967 64.2489 43.0423C67.5807 41.0902 71.317 39.9347 75.1671 39.6657C79.0171 39.3968 82.8772 40.0217 86.447 41.4917C90.0168 42.9618 93.2001 45.2374 95.7491 48.1415C98.2982 51.0456 100.144 54.5 101.144 58.2358C102.144 61.9716 102.27 65.8881 101.512 69.6807C100.755 73.4733 99.1351 77.0397 96.7781 80.1025C94.4212 83.1652 91.3909 85.6418 87.9231 87.3394C84.4553 89.037 80.6434 89.9099 76.7841 89.8903L35.9308 90C27.4622 90 19.3405 86.6286 13.3523 80.6274C7.36413 74.6262 4 66.4869 4 58C4 49.5131 7.36413 41.3737 13.3523 35.3726C19.3405 29.3714 27.4622 26 35.9308 26H36.0221Z" fill="url(#paint0_linear_240_5428)"/>
<path d="M101.233 71.6259C104.97 58.2491 97.156 44.3754 83.7792 40.638C70.4024 36.9006 56.5286 44.7149 52.7912 58.0917C49.0538 71.4685 56.8681 85.3422 70.2449 89.0796C83.6217 92.817 97.4955 85.0027 101.233 71.6259Z" fill="url(#paint1_linear_240_5428)"/>
</g>
<defs>
<linearGradient id="paint0_linear_240_5428" x1="27.9755" y1="92.7246" x2="66.5611" y2="42.8671" gradientUnits="userSpaceOnUse">
<stop stop-color="#F2F2F2"/>
<stop offset="1" stop-color="#CFCFCF"/>
</linearGradient>
<linearGradient id="paint1_linear_240_5428" x1="87.2954" y1="55.92" x2="58.145" y2="81.2743" gradientUnits="userSpaceOnUse">
<stop offset="0.02" stop-color="white"/>
<stop offset="1" stop-color="white" stop-opacity="0"/>
</linearGradient>
<clipPath id="clip0_240_5428">
<rect width="103" height="94" fill="white"/>
</clipPath>
</defs>
</svg>
