<svg width="94" height="105" viewBox="0 0 94 105" fill="none" xmlns="http://www.w3.org/2000/svg">
<path d="M57 56C68.0457 56 77 46.8218 77 35.5C77 24.1782 68.0457 15 57 15C45.9543 15 37 24.1782 37 35.5C37 46.8218 45.9543 56 57 56Z" fill="#FFDF24"/>
<path d="M57 4V11" stroke="#FFDF24" stroke-width="3" stroke-miterlimit="10" stroke-linecap="round"/>
<path d="M57 61V68" stroke="#FFDF24" stroke-width="3" stroke-miterlimit="10" stroke-linecap="round"/>
<path d="M25 36H32" stroke="#FFDF24" stroke-width="3" stroke-miterlimit="10" stroke-linecap="round"/>
<path d="M82 36H89" stroke="#FFDF24" stroke-width="3" stroke-miterlimit="10" stroke-linecap="round"/>
<path d="M34 13L39 18" stroke="#FFDF24" stroke-width="3" stroke-miterlimit="10" stroke-linecap="round"/>
<path d="M75 53L80 58" stroke="#FFDF24" stroke-width="3" stroke-miterlimit="10" stroke-linecap="round"/>
<path d="M34 58L39 53" stroke="#FFDF24" stroke-width="3" stroke-miterlimit="10" stroke-linecap="round"/>
<path d="M75 18L80 13" stroke="#FFDF24" stroke-width="3" stroke-miterlimit="10" stroke-linecap="round"/>
<path d="M31.0312 26.0001C36.1371 25.9897 41.1487 27.3734 45.5245 30.0016C49.9003 32.6298 53.4738 36.4025 55.8589 40.912C58.7809 39.2055 62.0573 38.1947 65.4337 37.958C68.8101 37.7214 72.1958 38.2652 75.3277 39.5474C78.4596 40.8295 81.2536 42.8154 83.4926 45.351C85.7316 47.8865 87.3555 50.9034 88.2381 54.1674C89.1206 57.4314 89.2382 60.8547 88.5817 64.1714C87.9251 67.4882 86.5121 70.6092 84.4524 73.292C82.3926 75.9749 79.7415 78.1475 76.7049 79.641C73.6683 81.1346 70.328 81.9089 66.9432 81.904L31.0312 82C23.5969 82 16.467 79.05 11.2102 73.799C5.95328 68.548 3 61.4261 3 54C3 46.574 5.95328 39.4521 11.2102 34.2011C16.467 28.95 23.5969 26.0001 31.0312 26.0001Z" fill="url(#paint0_linear_242_5617)"/>
<path d="M88.0553 65.8745C91.3384 54.1236 84.4739 41.9361 72.723 38.6529C60.9721 35.3698 48.7845 42.2343 45.5014 53.9853C42.2183 65.7362 49.0828 77.9237 60.8337 81.2068C72.5847 84.49 84.7722 77.6255 88.0553 65.8745Z" fill="url(#paint1_linear_242_5617)"/>
<path d="M45 90V91" stroke="#0877AD" stroke-width="5" stroke-miterlimit="10" stroke-linecap="round"/>
<path d="M36 86V88" stroke="#0877AD" stroke-width="5" stroke-miterlimit="10" stroke-linecap="round"/>
<path d="M55 86V88" stroke="#0877AD" stroke-width="5" stroke-miterlimit="10" stroke-linecap="round"/>
<path d="M55 96V98" stroke="#0877AD" stroke-width="5" stroke-miterlimit="10" stroke-linecap="round"/>
<path d="M36 96V98" stroke="#0877AD" stroke-width="5" stroke-miterlimit="10" stroke-linecap="round"/>
<path d="M45 99V101" stroke="#0877AD" stroke-width="5" stroke-miterlimit="10" stroke-linecap="round"/>
<path d="M45 56V70" stroke="#9C9FA0" stroke-width="2" stroke-miterlimit="10" stroke-linecap="round"/>
<path d="M46 54L44.5064 56L43 54" stroke="#9C9FA0" stroke-width="2" stroke-miterlimit="10" stroke-linecap="round"/>
<path d="M43 72L44.5064 70L46 72" stroke="#9C9FA0" stroke-width="2" stroke-miterlimit="10" stroke-linecap="round"/>
<path d="M51 59L38 67" stroke="#9C9FA0" stroke-width="2" stroke-miterlimit="10" stroke-linecap="round"/>
<path d="M53 60L51 59.5735L51.7312 57" stroke="#9C9FA0" stroke-width="2" stroke-miterlimit="10" stroke-linecap="round"/>
<path d="M36 66L38 66.4118L37.2688 69" stroke="#9C9FA0" stroke-width="2" stroke-miterlimit="10" stroke-linecap="round"/>
<path d="M51 67L38 59" stroke="#9C9FA0" stroke-width="2" stroke-miterlimit="10" stroke-linecap="round"/>
<path d="M51.7312 69L51 66.4118L53 66" stroke="#9C9FA0" stroke-width="2" stroke-miterlimit="10" stroke-linecap="round"/>
<path d="M37.2688 57L38 59.5735L36 60" stroke="#9C9FA0" stroke-width="2" stroke-miterlimit="10" stroke-linecap="round"/>
<defs>
<linearGradient id="paint0_linear_242_5617" x1="23.9513" y1="84.384" x2="57.6858" y2="40.6516" gradientUnits="userSpaceOnUse">
<stop stop-color="#F2F2F2"/>
<stop offset="1" stop-color="#CFCFCF"/>
</linearGradient>
<linearGradient id="paint1_linear_242_5617" x1="75.8119" y1="52.0775" x2="50.2045" y2="74.3502" gradientUnits="userSpaceOnUse">
<stop offset="0.02" stop-color="white"/>
<stop offset="1" stop-color="white" stop-opacity="0"/>
</linearGradient>
</defs>
</svg>
