<svg width="93" height="102" viewBox="0 0 93 102" fill="none" xmlns="http://www.w3.org/2000/svg">
<g clip-path="url(#clip0_242_5635)">
<path d="M74.3066 30.1794C70.9642 29.9088 67.7253 28.8901 64.8291 27.1984C61.933 25.5068 59.4536 23.1855 57.5743 20.4061C55.695 17.6267 54.4637 14.4601 53.9714 11.1405C53.4791 7.82081 53.7385 4.43288 54.7303 1.22701C54.7808 1.04452 54.7768 0.851207 54.7187 0.670987C54.6606 0.490766 54.551 0.331551 54.4034 0.213045C54.2558 0.0945381 54.0767 0.0219418 53.8883 0.00424037C53.7 -0.0134611 53.5105 0.024509 53.3435 0.113452C50.344 1.81533 47.778 4.18774 45.8456 7.0456C43.9131 9.90347 42.6666 13.1695 42.2031 16.5889C41.7397 20.0084 42.0718 23.4887 43.1738 26.7585C44.2757 30.0283 46.1175 32.9991 48.5556 35.4391C50.9937 37.8792 53.9621 39.7225 57.2292 40.8253C60.4964 41.9281 63.974 42.2606 67.3907 41.7967C70.8073 41.3329 74.0708 40.0853 76.9263 38.1514C79.7819 36.2174 82.1524 33.6493 83.8529 30.6474C83.9578 30.4794 84.0088 30.2832 83.9988 30.0854C83.9888 29.8875 83.9184 29.6975 83.7971 29.5409C83.6758 29.3843 83.5095 29.2687 83.3205 29.2098C83.1315 29.1508 82.929 29.1513 82.7403 29.2111C80.0163 30.0682 77.1538 30.3968 74.3066 30.1794Z" fill="#FFDF24"/>
<path d="M30.7545 22C35.9689 21.9983 41.0849 23.4357 45.5513 26.1573C50.0177 28.8788 53.6653 32.7814 56.1011 37.4446C59.0929 35.6755 62.4479 34.6283 65.9051 34.3846C69.3623 34.1409 72.8285 34.7072 76.0341 36.0394C79.2396 37.3716 82.098 39.4339 84.387 42.0657C86.6759 44.6976 88.3337 47.8281 89.2313 51.2137C90.1289 54.5992 90.2421 58.1486 89.5621 61.5857C88.8822 65.0227 87.4274 68.2548 85.311 71.0304C83.1945 73.806 80.4735 76.0503 77.3595 77.5888C74.2456 79.1273 70.8227 79.9184 67.3571 79.9006L30.6726 80C23.0681 80 15.7752 76.9446 10.398 71.5061C5.02085 66.0675 2 58.6913 2 51C2 43.3087 5.02085 35.9325 10.398 30.4939C15.7752 25.0553 23.0681 22 30.6726 22H30.7545Z" fill="url(#paint0_linear_242_5635)"/>
<path d="M88.9814 63.0752C92.3054 51.1781 85.3555 38.8391 73.4585 35.5151C61.5614 32.1912 49.2224 39.141 45.8984 51.0381C42.5745 62.9351 49.5243 75.2742 61.4214 78.5981C73.3184 81.9221 85.6575 74.9722 88.9814 63.0752Z" fill="url(#paint1_linear_242_5635)"/>
<path d="M45 87V89" stroke="#0877AD" stroke-width="5" stroke-miterlimit="10" stroke-linecap="round"/>
<path d="M36 84V86" stroke="#0877AD" stroke-width="5" stroke-miterlimit="10" stroke-linecap="round"/>
<path d="M55 84V86" stroke="#0877AD" stroke-width="5" stroke-miterlimit="10" stroke-linecap="round"/>
<path d="M55 93V95" stroke="#0877AD" stroke-width="5" stroke-miterlimit="10" stroke-linecap="round"/>
<path d="M36 93V95" stroke="#0877AD" stroke-width="5" stroke-miterlimit="10" stroke-linecap="round"/>
<path d="M45 96V98" stroke="#0877AD" stroke-width="5" stroke-miterlimit="10" stroke-linecap="round"/>
<path d="M45 56V70" stroke="#9C9FA0" stroke-width="2" stroke-miterlimit="10" stroke-linecap="round"/>
<path d="M46 54L44.5064 56L43 54" stroke="#9C9FA0" stroke-width="2" stroke-miterlimit="10" stroke-linecap="round"/>
<path d="M43 72L44.5064 70L46 72" stroke="#9C9FA0" stroke-width="2" stroke-miterlimit="10" stroke-linecap="round"/>
<path d="M51 59L38 67" stroke="#9C9FA0" stroke-width="2" stroke-miterlimit="10" stroke-linecap="round"/>
<path d="M53 60L51 59.5735L51.7312 57" stroke="#9C9FA0" stroke-width="2" stroke-miterlimit="10" stroke-linecap="round"/>
<path d="M36 66L38 66.4118L37.2688 69" stroke="#9C9FA0" stroke-width="2" stroke-miterlimit="10" stroke-linecap="round"/>
<path d="M51 67L38 59" stroke="#9C9FA0" stroke-width="2" stroke-miterlimit="10" stroke-linecap="round"/>
<path d="M51.7312 69L51 66.4118L53 66" stroke="#9C9FA0" stroke-width="2" stroke-miterlimit="10" stroke-linecap="round"/>
<path d="M37.2688 57L38 59.5735L36 60" stroke="#9C9FA0" stroke-width="2" stroke-miterlimit="10" stroke-linecap="round"/>
</g>
<defs>
<linearGradient id="paint0_linear_242_5635" x1="23.529" y1="82.4691" x2="58.5765" y2="37.5976" gradientUnits="userSpaceOnUse">
<stop stop-color="#F2F2F2"/>
<stop offset="1" stop-color="#CFCFCF"/>
</linearGradient>
<linearGradient id="paint1_linear_242_5635" x1="76.5858" y1="49.1067" x2="50.6556" y2="71.6719" gradientUnits="userSpaceOnUse">
<stop offset="0.02" stop-color="white"/>
<stop offset="1" stop-color="white" stop-opacity="0"/>
</linearGradient>
<clipPath id="clip0_242_5635">
<rect width="93" height="102" fill="white"/>
</clipPath>
</defs>
</svg>
