<svg width="91" height="86" viewBox="0 0 91 86" fill="none" xmlns="http://www.w3.org/2000/svg">
<g clip-path="url(#clip0_245_5850)">
<path d="M31.583 5.71729C36.7974 5.71566 41.9134 7.12826 46.3798 9.8029C50.8462 12.4775 54.4938 16.3128 56.9296 20.8956C59.9214 19.157 63.2764 18.1279 66.7336 17.8883C70.1908 17.6488 73.657 18.2053 76.8626 19.5146C80.0681 20.8239 82.9265 22.8506 85.2155 25.4371C87.5044 28.0235 89.1622 31.1001 90.0598 34.4273C90.9574 37.7545 91.0706 41.2426 90.3906 44.6204C89.7107 47.9982 88.2559 51.1746 86.1395 53.9023C84.023 56.6301 81.302 58.8357 78.188 60.3477C75.0741 61.8596 71.6512 62.6371 68.1856 62.6196L31.5011 62.7173C23.8966 62.7173 16.6037 59.7146 11.2265 54.3698C5.84935 49.025 2.82849 41.776 2.82849 34.2173C2.82849 26.6586 5.84935 19.4095 11.2265 14.0647C16.6037 8.71996 23.8966 5.71729 31.5011 5.71729H31.583Z" fill="url(#paint0_linear_245_5850)"/>
<path d="M89.757 46.2819C93.1099 34.2812 86.0995 21.8347 74.0988 18.4818C62.0981 15.1289 49.6516 22.1393 46.2986 34.14C42.9457 46.1407 49.9561 58.5872 61.9568 61.9401C73.9575 65.293 86.4041 58.2826 89.757 46.2819Z" fill="url(#paint1_linear_245_5850)"/>
<path d="M51.8285 76.7653C51.8285 77.5469 51.6733 78.3209 51.3718 79.043C51.0702 79.7651 50.6283 80.4213 50.0711 80.974C49.514 81.5267 48.8525 81.9651 48.1246 82.2642C47.3966 82.5633 46.6164 82.7173 45.8285 82.7173C45.0406 82.7173 44.2603 82.5633 43.5324 82.2642C42.8044 81.9651 42.143 81.5267 41.5858 80.974C41.0287 80.4213 40.5867 79.7651 40.2852 79.043C39.9837 78.3209 39.8285 77.5469 39.8285 76.7653C39.8285 71.5493 44.6672 66.7173 45.8285 66.7173C46.9898 66.7173 51.8285 71.5173 51.8285 76.7653Z" fill="#0877AD"/>
</g>
<defs>
<linearGradient id="paint0_linear_245_5850" x1="24.3575" y1="65.1439" x2="58.6511" y2="20.4673" gradientUnits="userSpaceOnUse">
<stop stop-color="#F2F2F2"/>
<stop offset="1" stop-color="#CFCFCF"/>
</linearGradient>
<linearGradient id="paint1_linear_245_5850" x1="77.2533" y1="32.1917" x2="51.1017" y2="54.9377" gradientUnits="userSpaceOnUse">
<stop offset="0.02" stop-color="white"/>
<stop offset="1" stop-color="white" stop-opacity="0"/>
</linearGradient>
<clipPath id="clip0_245_5850">
<rect width="91" height="86" fill="white"/>
</clipPath>
</defs>
</svg>
