<svg width="96" height="103" viewBox="0 0 96 103" fill="none" xmlns="http://www.w3.org/2000/svg">
<path d="M58.4573 55.6562C69.7791 55.6562 78.9573 46.7019 78.9573 35.6562C78.9573 24.6106 69.7791 15.6562 58.4573 15.6562C47.1354 15.6562 37.9573 24.6106 37.9573 35.6562C37.9573 46.7019 47.1354 55.6562 58.4573 55.6562Z" fill="#FFDF24"/>
<path d="M58.9573 3.65625V10.6563" stroke="#FFDF24" stroke-width="3" stroke-miterlimit="10" stroke-linecap="round"/>
<path d="M58.9573 60.6562V67.6563" stroke="#FFDF24" stroke-width="3" stroke-miterlimit="10" stroke-linecap="round"/>
<path d="M25.9573 35.6562H32.9573" stroke="#FFDF24" stroke-width="3" stroke-miterlimit="10" stroke-linecap="round"/>
<path d="M83.9573 35.6562H90.9573" stroke="#FFDF24" stroke-width="3" stroke-miterlimit="10" stroke-linecap="round"/>
<path d="M35.9573 12.6562L40.9573 17.6563" stroke="#FFDF24" stroke-width="3" stroke-miterlimit="10" stroke-linecap="round"/>
<path d="M75.9573 53.6562L81.9573 58.6563" stroke="#FFDF24" stroke-width="3" stroke-miterlimit="10" stroke-linecap="round"/>
<path d="M35.9573 58.6563L40.9573 53.6562" stroke="#FFDF24" stroke-width="3" stroke-miterlimit="10" stroke-linecap="round"/>
<path d="M75.9573 17.6563L81.9573 12.6562" stroke="#FFDF24" stroke-width="3" stroke-miterlimit="10" stroke-linecap="round"/>
<path d="M32.3144 25.6563C37.4797 25.6458 42.5496 27.0542 46.9763 29.7293C51.4029 32.4044 55.018 36.2445 57.4308 40.8346C60.3867 39.0976 63.7012 38.0687 67.1169 37.8278C70.5327 37.5869 73.9576 38.1405 77.126 39.4455C80.2943 40.7506 83.1208 42.772 85.3858 45.3528C87.6509 47.9336 89.2936 51.0043 90.1865 54.3266C91.0793 57.6489 91.1983 61.1333 90.5341 64.5093C89.8699 67.8853 88.4405 71.062 86.3567 73.7928C84.273 76.5236 81.5911 78.7349 78.5192 80.2551C75.4473 81.7754 72.0681 82.5636 68.644 82.5585L32.3144 82.6562C24.7937 82.6562 17.5809 79.6536 12.2629 74.3088C6.9449 68.964 3.95728 61.7149 3.95728 54.1563C3.95728 46.5976 6.9449 39.3485 12.2629 34.0038C17.5809 28.659 24.7937 25.6563 32.3144 25.6563Z" fill="url(#paint0_linear_239_5240)"/>
<path d="M89.8886 66.0981C93.1967 54.2579 86.28 41.9777 74.4398 38.6696C62.5995 35.3616 50.3194 42.2782 47.0113 54.1185C43.7032 65.9587 50.6199 78.2389 62.4601 81.5469C74.3004 84.855 86.5805 77.9383 89.8886 66.0981Z" fill="url(#paint1_linear_239_5240)"/>
<path d="M45.9573 54.6562V71.6563" stroke="#9C9FA0" stroke-width="2" stroke-miterlimit="10" stroke-linecap="round"/>
<path d="M47.9573 52.6562L45.9658 55.6562L43.9573 52.6562" stroke="#9C9FA0" stroke-width="2" stroke-miterlimit="10" stroke-linecap="round"/>
<path d="M43.9573 73.6562L45.9658 71.6562L47.9573 73.6562" stroke="#9C9FA0" stroke-width="2" stroke-miterlimit="10" stroke-linecap="round"/>
<path d="M52.9573 58.6562L38.9573 67.6562" stroke="#9C9FA0" stroke-width="2" stroke-miterlimit="10" stroke-linecap="round"/>
<path d="M55.9573 59.6563L52.9573 59.2298L54.054 56.6562" stroke="#9C9FA0" stroke-width="2" stroke-miterlimit="10" stroke-linecap="round"/>
<path d="M35.9573 66.6562L38.9573 67.068L37.8605 69.6563" stroke="#9C9FA0" stroke-width="2" stroke-miterlimit="10" stroke-linecap="round"/>
<path d="M52.9573 67.6562L38.9573 58.6562" stroke="#9C9FA0" stroke-width="2" stroke-miterlimit="10" stroke-linecap="round"/>
<path d="M54.054 69.6563L52.9573 67.068L55.9573 66.6562" stroke="#9C9FA0" stroke-width="2" stroke-miterlimit="10" stroke-linecap="round"/>
<path d="M37.8605 56.6562L38.9573 59.2298L35.9573 59.6563" stroke="#9C9FA0" stroke-width="2" stroke-miterlimit="10" stroke-linecap="round"/>
<path d="M37 96C38.6569 96 40 94.6569 40 93C40 91.3431 38.6569 90 37 90C35.3431 90 34 91.3431 34 93C34 94.6569 35.3431 96 37 96Z" fill="#C4C4C4"/>
<path d="M53.4573 100.656C54.838 100.656 55.9573 99.537 55.9573 98.1562C55.9573 96.7755 54.838 95.6562 53.4573 95.6562C52.0766 95.6562 50.9573 96.7755 50.9573 98.1562C50.9573 99.537 52.0766 100.656 53.4573 100.656Z" fill="#E0E0E0"/>
<path d="M24.4573 89.6562C25.838 89.6562 26.9573 88.537 26.9573 87.1562C26.9573 85.7755 25.838 84.6562 24.4573 84.6562C23.0766 84.6562 21.9573 85.7755 21.9573 87.1562C21.9573 88.537 23.0766 89.6562 24.4573 89.6562Z" fill="#E0E0E0"/>
<path d="M46.4573 88.6562C47.2857 88.6562 47.9573 87.9847 47.9573 87.1562C47.9573 86.3278 47.2857 85.6562 46.4573 85.6562C45.6288 85.6562 44.9573 86.3278 44.9573 87.1562C44.9573 87.9847 45.6288 88.6562 46.4573 88.6562Z" fill="white"/>
<path d="M69.4573 99.6562C70.2857 99.6562 70.9573 98.9847 70.9573 98.1562C70.9573 97.3278 70.2857 96.6562 69.4573 96.6562C68.6288 96.6562 67.9573 97.3278 67.9573 98.1562C67.9573 98.9847 68.6288 99.6562 69.4573 99.6562Z" fill="white"/>
<path d="M22.4573 99.6562C23.2857 99.6562 23.9573 98.9847 23.9573 98.1562C23.9573 97.3278 23.2857 96.6562 22.4573 96.6562C21.6288 96.6562 20.9573 97.3278 20.9573 98.1562C20.9573 98.9847 21.6288 99.6562 22.4573 99.6562Z" fill="white"/>
<path d="M62.9573 91.6562C64.6141 91.6562 65.9573 90.3131 65.9573 88.6562C65.9573 86.9994 64.6141 85.6562 62.9573 85.6562C61.3004 85.6562 59.9573 86.9994 59.9573 88.6562C59.9573 90.3131 61.3004 91.6562 62.9573 91.6562Z" fill="#C4C4C4"/>
<defs>
<linearGradient id="paint0_linear_239_5240" x1="25.1522" y1="85.0828" x2="59.542" y2="40.7737" gradientUnits="userSpaceOnUse">
<stop stop-color="#F2F2F2"/>
<stop offset="1" stop-color="#CFCFCF"/>
</linearGradient>
<linearGradient id="paint1_linear_239_5240" x1="77.5365" y1="52.1919" x2="51.7458" y2="74.6538" gradientUnits="userSpaceOnUse">
<stop offset="0.02" stop-color="white"/>
<stop offset="1" stop-color="white" stop-opacity="0"/>
</linearGradient>
</defs>
</svg>
