<svg width="94" height="82" viewBox="0 0 94 82" fill="none" xmlns="http://www.w3.org/2000/svg">
<g clip-path="url(#clip0_294_7896)">
<path d="M31.408 2C36.7409 1.99835 41.9731 3.43573 46.5411 6.15729C51.109 8.87885 54.8395 12.7814 57.3306 17.4446C60.3904 15.6755 63.8217 14.6283 67.3575 14.3846C70.8933 14.1409 74.4383 14.7072 77.7167 16.0394C80.995 17.3716 83.9184 19.4339 86.2594 22.0657C88.6004 24.6976 90.2958 27.8281 91.2138 31.2137C92.1318 34.5992 92.2476 38.1486 91.5522 41.5857C90.8568 45.0227 89.3689 48.2548 87.2044 51.0304C85.0398 53.806 82.257 56.0503 79.0722 57.5888C75.8875 59.1273 72.3868 59.9184 68.8425 59.9006L31.3242 60C23.547 60 16.0882 56.9446 10.5889 51.5061C5.08951 46.0675 2 38.6913 2 31C2 23.3087 5.08951 15.9325 10.5889 10.4939C16.0882 5.05535 23.547 2 31.3242 2H31.408Z" fill="url(#paint0_linear_294_7896)"/>
<path d="M91.0447 42.911C94.4379 30.7662 87.3433 18.1702 75.1985 14.777C63.0537 11.3838 50.4577 18.4784 47.0645 30.6232C43.6714 42.768 50.7659 55.364 62.9107 58.7572C75.0555 62.1503 87.6515 55.0557 91.0447 42.911Z" fill="url(#paint1_linear_294_7896)"/>
<path d="M46 32V49" stroke="#9C9FA0" stroke-width="2" stroke-miterlimit="10" stroke-linecap="round"/>
<path d="M48 30L46.0085 32L44 30" stroke="#9C9FA0" stroke-width="2" stroke-miterlimit="10" stroke-linecap="round"/>
<path d="M44 51L46.0085 49L48 51" stroke="#9C9FA0" stroke-width="2" stroke-miterlimit="10" stroke-linecap="round"/>
<path d="M53 36L38 45" stroke="#9C9FA0" stroke-width="2" stroke-miterlimit="10" stroke-linecap="round"/>
<path d="M56 37L53 36.4314L54.0968 33" stroke="#9C9FA0" stroke-width="2" stroke-miterlimit="10" stroke-linecap="round"/>
<path d="M36 44L38 44.549L37.2688 48" stroke="#9C9FA0" stroke-width="2" stroke-miterlimit="10" stroke-linecap="round"/>
<path d="M53 45L38 36" stroke="#9C9FA0" stroke-width="2" stroke-miterlimit="10" stroke-linecap="round"/>
<path d="M54.0968 48L53 44.549L56 44" stroke="#9C9FA0" stroke-width="2" stroke-miterlimit="10" stroke-linecap="round"/>
<path d="M37.2688 33L38 36.4314L36 37" stroke="#9C9FA0" stroke-width="2" stroke-miterlimit="10" stroke-linecap="round"/>
<path d="M36.5 74C37.8807 74 39 72.8807 39 71.5C39 70.1193 37.8807 69 36.5 69C35.1193 69 34 70.1193 34 71.5C34 72.8807 35.1193 74 36.5 74Z" fill="#C4C4C4"/>
<path d="M53.5 80C54.8807 80 56 78.8807 56 77.5C56 76.1193 54.8807 75 53.5 75C52.1193 75 51 76.1193 51 77.5C51 78.8807 52.1193 80 53.5 80Z" fill="#E0E0E0"/>
<path d="M23.5 68C24.8807 68 26 66.8807 26 65.5C26 64.1193 24.8807 63 23.5 63C22.1193 63 21 64.1193 21 65.5C21 66.8807 22.1193 68 23.5 68Z" fill="#E0E0E0"/>
<path d="M46.5 67C47.3284 67 48 66.3284 48 65.5C48 64.6716 47.3284 64 46.5 64C45.6716 64 45 64.6716 45 65.5C45 66.3284 45.6716 67 46.5 67Z" fill="white"/>
<path d="M69.5 79C70.3284 79 71 78.3284 71 77.5C71 76.6716 70.3284 76 69.5 76C68.6716 76 68 76.6716 68 77.5C68 78.3284 68.6716 79 69.5 79Z" fill="white"/>
<path d="M21.5 79C22.3284 79 23 78.3284 23 77.5C23 76.6716 22.3284 76 21.5 76C20.6716 76 20 76.6716 20 77.5C20 78.3284 20.6716 79 21.5 79Z" fill="white"/>
<path d="M63.5 71C65.433 71 67 69.433 67 67.5C67 65.567 65.433 64 63.5 64C61.567 64 60 65.567 60 67.5C60 69.433 61.567 71 63.5 71Z" fill="#C4C4C4"/>
</g>
<defs>
<linearGradient id="paint0_linear_294_7896" x1="24.0183" y1="62.4691" x2="58.8673" y2="16.8377" gradientUnits="userSpaceOnUse">
<stop stop-color="#F2F2F2"/>
<stop offset="1" stop-color="#CFCFCF"/>
</linearGradient>
<linearGradient id="paint1_linear_294_7896" x1="78.3954" y1="28.6356" x2="51.9253" y2="51.6707" gradientUnits="userSpaceOnUse">
<stop offset="0.02" stop-color="white"/>
<stop offset="1" stop-color="white" stop-opacity="0"/>
</linearGradient>
<clipPath id="clip0_294_7896">
<rect width="94" height="82" fill="white"/>
</clipPath>
</defs>
</svg>
