<svg width="89" height="101" viewBox="0 0 89 101" fill="none" xmlns="http://www.w3.org/2000/svg">
<g clip-path="url(#clip0_239_5324)">
<path d="M53.2241 55C64.2698 55 73.2241 46.2696 73.2241 35.5C73.2241 24.7304 64.2698 16 53.2241 16C42.1784 16 33.2241 24.7304 33.2241 35.5C33.2241 46.2696 42.1784 55 53.2241 55Z" fill="#FFDF24"/>
<path d="M53.2241 4V11" stroke="#FFDF24" stroke-width="3" stroke-miterlimit="10" stroke-linecap="round"/>
<path d="M53.2241 60V67" stroke="#FFDF24" stroke-width="3" stroke-miterlimit="10" stroke-linecap="round"/>
<path d="M22.2241 36H29.2241" stroke="#FFDF24" stroke-width="3" stroke-miterlimit="10" stroke-linecap="round"/>
<path d="M77.2241 36H84.2241" stroke="#FFDF24" stroke-width="3" stroke-miterlimit="10" stroke-linecap="round"/>
<path d="M31.2241 14L36.2241 18" stroke="#FFDF24" stroke-width="3" stroke-miterlimit="10" stroke-linecap="round"/>
<path d="M70.2241 53L75.2241 58" stroke="#FFDF24" stroke-width="3" stroke-miterlimit="10" stroke-linecap="round"/>
<path d="M31.2241 58L36.2241 53" stroke="#FFDF24" stroke-width="3" stroke-miterlimit="10" stroke-linecap="round"/>
<path d="M70.2241 18L75.2241 14" stroke="#FFDF24" stroke-width="3" stroke-miterlimit="10" stroke-linecap="round"/>
<path d="M27.6032 26.0001C32.5904 25.9899 37.4854 27.3489 41.7595 29.9301C46.0335 32.5114 49.5239 36.2167 51.8535 40.6458C54.7075 38.9697 57.9077 37.9769 61.2056 37.7445C64.5035 37.5121 67.8104 38.0462 70.8695 39.3054C73.9286 40.5647 76.6576 42.5152 78.8445 45.0054C81.0315 47.4957 82.6176 50.4587 83.4796 53.6644C84.3417 56.8701 84.4566 60.2323 83.8153 63.4898C83.174 66.7473 81.7939 69.8126 79.782 72.4475C77.7701 75.0825 75.1807 77.2163 72.2147 78.6831C69.2487 80.15 65.9861 80.9106 62.6801 80.9057L27.6032 81C20.3418 81 13.3777 78.1027 8.2431 72.9454C3.10848 67.7882 0.223877 60.7935 0.223877 53.5C0.223877 46.2066 3.10848 39.2119 8.2431 34.0546C13.3777 28.8974 20.3418 26.0001 27.6032 26.0001Z" fill="url(#paint0_linear_239_5324)"/>
<path d="M83.3981 64.852C86.5796 53.4648 79.9275 41.6544 68.5402 38.4729C57.153 35.2913 45.3426 41.9434 42.1611 53.3307C38.9795 64.718 45.6316 76.5284 57.0189 79.7099C68.4062 82.8914 80.2166 76.2393 83.3981 64.852Z" fill="url(#paint1_linear_239_5324)"/>
<path d="M32.2241 85V89" stroke="#0877AD" stroke-width="4" stroke-miterlimit="10" stroke-linecap="round"/>
<circle cx="32.7241" cy="95.5" r="2.5" fill="#B9C1C6"/>
<path d="M42.2241 88V92" stroke="#0877AD" stroke-width="4" stroke-miterlimit="10" stroke-linecap="round"/>
<circle cx="41.7241" cy="98.5" r="2.5" fill="#B9C1C6"/>
<path d="M51.2241 85V89" stroke="#0877AD" stroke-width="4" stroke-miterlimit="10" stroke-linecap="round"/>
<ellipse cx="51.2241" cy="95.5" rx="2" ry="2.5" fill="#B9C1C6"/>
</g>
<defs>
<linearGradient id="paint0_linear_239_5324" x1="20.688" y1="83.3414" x2="53.8659" y2="40.5669" gradientUnits="userSpaceOnUse">
<stop stop-color="#F2F2F2"/>
<stop offset="1" stop-color="#CFCFCF"/>
</linearGradient>
<linearGradient id="paint1_linear_239_5324" x1="71.5336" y1="51.482" x2="46.7186" y2="73.0654" gradientUnits="userSpaceOnUse">
<stop offset="0.02" stop-color="white"/>
<stop offset="1" stop-color="white" stop-opacity="0"/>
</linearGradient>
<clipPath id="clip0_239_5324">
<rect width="89" height="101" fill="white"/>
</clipPath>
</defs>
</svg>
