<svg width="84" height="97" viewBox="0 0 84 97" fill="none" xmlns="http://www.w3.org/2000/svg">
<g clip-path="url(#clip0_300_7922)">
<path d="M68.0637 31.5721C64.96 31.3208 61.9525 30.3748 59.2632 28.804C56.5739 27.2332 54.2716 25.0778 52.5265 22.4968C50.7814 19.9159 49.6381 16.9756 49.181 13.8931C48.7239 10.8105 48.9647 7.66458 49.8857 4.6877C49.9326 4.51825 49.9289 4.33875 49.8749 4.1714C49.821 4.00405 49.7192 3.85621 49.5821 3.74617C49.4451 3.63613 49.2788 3.56871 49.1039 3.55228C48.9289 3.53584 48.753 3.5711 48.5979 3.65369C45.8127 5.234 43.43 7.43696 41.6356 10.0907C39.8412 12.7444 38.6837 15.7772 38.2533 18.9524C37.823 22.1275 38.1314 25.3593 39.1546 28.3955C40.1778 31.4318 41.8881 34.1904 44.152 36.4561C46.416 38.7219 49.1723 40.4335 52.2061 41.4576C55.2399 42.4816 58.4691 42.7903 61.6417 42.3596C64.8144 41.9289 67.8447 40.7704 70.4963 38.9746C73.1479 37.1788 75.3491 34.7941 76.9281 32.0066C77.0255 31.8506 77.0728 31.6685 77.0636 31.4848C77.0543 31.301 76.9889 31.1246 76.8763 30.9792C76.7637 30.8338 76.6092 30.7265 76.4337 30.6717C76.2582 30.6169 76.0702 30.6174 75.8949 30.6729C73.3655 31.4688 70.7075 31.7739 68.0637 31.5721Z" fill="#FFDF24"/>
<path d="M28.5319 23.5483C33.3315 23.5468 38.0405 24.8603 42.1517 27.3472C46.2628 29.8342 49.6203 33.4003 51.8623 37.6615C54.6161 36.0449 57.7042 35.088 60.8865 34.8653C64.0687 34.6426 67.2591 35.16 70.2097 36.3774C73.1602 37.5948 75.7913 39.4793 77.8982 41.8843C80.005 44.2892 81.5309 47.1499 82.3571 50.2436C83.1833 53.3373 83.2875 56.5807 82.6617 59.7214C82.0358 62.8622 80.6967 65.8156 78.7487 68.352C76.8006 70.8883 74.296 72.9392 71.4297 74.345C68.5635 75.7508 65.4128 76.4738 62.2229 76.4575L28.4565 76.5483C21.457 76.5483 14.7441 73.7564 9.79468 68.7867C4.84525 63.817 2.0647 57.0766 2.0647 50.0483C2.0647 43.0201 4.84525 36.2797 9.79468 31.31C14.7441 26.3403 21.457 23.5483 28.4565 23.5483H28.5319Z" fill="url(#paint0_linear_300_7922)"/>
<path d="M82.3734 61.5574C85.4539 50.5317 79.013 39.0963 67.9873 36.0158C56.9616 32.9353 45.5262 39.3761 42.4457 50.4019C39.3652 61.4276 45.806 72.863 56.8318 75.9435C67.8575 79.024 79.2929 72.5831 82.3734 61.5574Z" fill="url(#paint1_linear_300_7922)"/>
<path d="M33.0647 80.5483V85.5483" stroke="#0877AD" stroke-width="4" stroke-miterlimit="10" stroke-linecap="round"/>
<circle cx="33" cy="91" r="2" fill="#B9C1C6"/>
<path d="M42.0647 83.5483V88.5483" stroke="#0877AD" stroke-width="4" stroke-miterlimit="10" stroke-linecap="round"/>
<circle cx="42" cy="94" r="2" fill="#B9C1C6"/>
<path d="M51.0647 80.5483V85.5483" stroke="#0877AD" stroke-width="4" stroke-miterlimit="10" stroke-linecap="round"/>
<circle cx="51" cy="91" r="2" fill="#B9C1C6"/>
<path d="M42 52V66" stroke="#9C9FA0" stroke-width="2" stroke-miterlimit="10" stroke-linecap="round"/>
<path d="M43 50L41.5064 52L40 50" stroke="#9C9FA0" stroke-width="2" stroke-miterlimit="10" stroke-linecap="round"/>
<path d="M40 68L41.5064 66L43 68" stroke="#9C9FA0" stroke-width="2" stroke-miterlimit="10" stroke-linecap="round"/>
<path d="M48 55L35 63" stroke="#9C9FA0" stroke-width="2" stroke-miterlimit="10" stroke-linecap="round"/>
<path d="M50 56L48 55.5735L48.7312 53" stroke="#9C9FA0" stroke-width="2" stroke-miterlimit="10" stroke-linecap="round"/>
<path d="M33 62L35 62.4118L34.2688 65" stroke="#9C9FA0" stroke-width="2" stroke-miterlimit="10" stroke-linecap="round"/>
<path d="M48 63L35 55" stroke="#9C9FA0" stroke-width="2" stroke-miterlimit="10" stroke-linecap="round"/>
<path d="M48.7312 65L48 62.4118L50 62" stroke="#9C9FA0" stroke-width="2" stroke-miterlimit="10" stroke-linecap="round"/>
<path d="M34.2688 53L35 55.5735L33 56" stroke="#9C9FA0" stroke-width="2" stroke-miterlimit="10" stroke-linecap="round"/>
</g>
<defs>
<linearGradient id="paint0_linear_300_7922" x1="21.8812" y1="78.8046" x2="53.8503" y2="37.576" gradientUnits="userSpaceOnUse">
<stop stop-color="#F2F2F2"/>
<stop offset="1" stop-color="#CFCFCF"/>
</linearGradient>
<linearGradient id="paint1_linear_300_7922" x1="70.8856" y1="48.6119" x2="46.8545" y2="69.5245" gradientUnits="userSpaceOnUse">
<stop offset="0.02" stop-color="white"/>
<stop offset="1" stop-color="white" stop-opacity="0"/>
</linearGradient>
<clipPath id="clip0_300_7922">
<rect width="84" height="97" fill="white"/>
</clipPath>
</defs>
</svg>
