<svg width="100" height="86" viewBox="0 0 100 86" fill="none" xmlns="http://www.w3.org/2000/svg">
<g clip-path="url(#clip0_240_5391)">
<path d="M33.1021 2.63428C38.5534 2.6326 43.902 4.09476 48.5714 6.86324C53.2409 9.63173 57.0543 13.6016 59.6007 18.3451C62.7285 16.5455 66.2361 15.4803 69.8504 15.2324C73.4648 14.9845 77.0885 15.5605 80.4398 16.9157C83.791 18.2709 86.7794 20.3687 89.1724 23.046C91.5654 25.7232 93.2985 28.9077 94.2369 32.3516C95.1752 35.7956 95.2936 39.4061 94.5828 42.9024C93.8719 46.3988 92.351 49.6865 90.1384 52.51C87.9257 55.3335 85.081 57.6165 81.8255 59.1815C78.57 60.7465 74.9915 61.5512 71.3684 61.5331L33.0164 61.6343C25.0663 61.6343 17.4418 58.5262 11.8203 52.9939C6.19869 47.4616 3.04053 39.9582 3.04053 32.1343C3.04053 24.3104 6.19869 16.807 11.8203 11.2746C17.4418 5.74231 25.0663 2.63428 33.0164 2.63428H33.1021Z" fill="url(#paint0_linear_240_5391)"/>
<path d="M93.7527 44.6882C97.2347 32.2256 89.9544 19.2999 77.4917 15.8179C65.029 12.3359 52.1033 19.6162 48.6213 32.0789C45.1394 44.5415 52.4196 57.4672 64.8823 60.9492C77.345 64.4312 90.2707 57.1509 93.7527 44.6882Z" fill="url(#paint1_linear_240_5391)"/>
<path d="M56.6514 47.6343L53 68.3385H60.3029L56.6514 83.6343L74 62.0343H65.7886L73.0914 47.6343H56.6514Z" fill="#FFDF24"/>
<path d="M37 71V82" stroke="#0877AD" stroke-width="5" stroke-miterlimit="10" stroke-linecap="round"/>
<path d="M28 68V79" stroke="#0877AD" stroke-width="5" stroke-miterlimit="10" stroke-linecap="round"/>
<path d="M46 68V79" stroke="#0877AD" stroke-width="5" stroke-miterlimit="10" stroke-linecap="round"/>
</g>
<defs>
<linearGradient id="paint0_linear_240_5391" x1="25.5481" y1="64.146" x2="60.9521" y2="17.561" gradientUnits="userSpaceOnUse">
<stop stop-color="#F2F2F2"/>
<stop offset="1" stop-color="#CFCFCF"/>
</linearGradient>
<linearGradient id="paint1_linear_240_5391" x1="80.7513" y1="30.051" x2="53.6047" y2="53.6937" gradientUnits="userSpaceOnUse">
<stop offset="0.02" stop-color="white"/>
<stop offset="1" stop-color="white" stop-opacity="0"/>
</linearGradient>
<clipPath id="clip0_240_5391">
<rect width="100" height="86" fill="white"/>
</clipPath>
</defs>
</svg>
