<svg width="72" height="87" viewBox="0 0 72 87" fill="none" xmlns="http://www.w3.org/2000/svg">
<path d="M35.1432 9L28 50.975H42.271L35.1432 82L69 38.2H52.9626L67.2181 9H35.1432Z" fill="#FFDF24"/>
<path d="M15 37.792C15 39.1732 14.4732 40.4979 13.5355 41.4746C12.5979 42.4513 11.3261 43 10 43C8.67392 43 7.40215 42.4513 6.46447 41.4746C5.52678 40.4979 5 39.1732 5 37.792C5 33.228 9.03226 29 10 29C10.9677 29 15 33.2 15 37.792Z" fill="#0877AD"/>
<path d="M23 25.652C23 26.5399 22.6313 27.3915 21.9749 28.0194C21.3185 28.6473 20.4283 29 19.5 29C18.5717 29 17.6815 28.6473 17.0251 28.0194C16.3687 27.3915 16 26.5399 16 25.652C16 22.718 18.8226 20 19.5 20C20.1774 20 23 22.7 23 25.652Z" fill="#0877AD"/>
<path d="M20 51.28C20 52.2666 19.6313 53.2128 18.9749 53.9104C18.3185 54.6081 17.4283 55 16.5 55C15.5717 55 14.6815 54.6081 14.0251 53.9104C13.3687 53.2128 13 52.2666 13 51.28C13 48.02 15.8226 45 16.5 45C17.1774 45 20 48 20 51.28Z" fill="#0877AD"/>
</svg>
