<svg width="24" height="24" viewBox="0 0 24 24" fill="none" xmlns="http://www.w3.org/2000/svg">
<path d="M18.5 9H12C11.45 9 11 8.55 11 8C11 7.45 11.45 7 12 7H18.5C19.33 7 20 6.33 20 5.5C20 4.67 19.33 4 18.5 4H16C15.45 4 15 3.55 15 3C15 2.45 15.45 2 16 2H18.5C20.43 2 22 3.57 22 5.5C22 7.43 20.43 9 18.5 9ZM22 18.5C22 16.57 20.43 15 18.5 15H12C11.45 15 11 15.45 11 16C11 16.55 11.45 17 12 17H18.5C19.33 17 20 17.67 20 18.5C20 19.33 19.33 20 18.5 20H16C15.45 20 15 20.45 15 21C15 21.55 15.45 22 16 22H18.5C20.43 22 22 20.43 22 18.5ZM16 12C16 11.45 15.55 11 15 11H10C9.45 11 9 11.45 9 12C9 12.55 9.45 13 10 13H15C15.55 13 16 12.55 16 12ZM8 12C8 11.45 7.55 11 7 11H6C5.45 11 5 11.45 5 12C5 12.55 5.45 13 6 13H7C7.55 13 8 12.55 8 12ZM10 8C10 7.45 9.55 7 9 7H7C6.45 7 6 7.45 6 8C6 8.55 6.45 9 7 9H9C9.55 9 10 8.55 10 8ZM10 16C10 15.45 9.55 15 9 15H7C6.45 15 6 15.45 6 16C6 16.55 6.45 17 7 17H9C9.55 17 10 16.55 10 16ZM11 19C11 19.55 10.55 20 10 20H5C4.45 20 4 19.55 4 19V5C4 4.45 4.45 4 5 4H10C10.55 4 11 4.45 11 5H13C13 3.35 11.65 2 10 2H5C3.35 2 2 3.35 2 5V19C2 20.65 3.35 22 5 22H10C11.65 22 13 20.65 13 19H11Z" fill="white"/>
</svg>
