<svg width="17" height="23" viewBox="0 0 17 23" fill="none" xmlns="http://www.w3.org/2000/svg">
<path d="M14 1.5C13.3812 1.5 12.7877 1.74583 12.3501 2.18342C11.9125 2.621 11.6667 3.21449 11.6667 3.83333C11.6667 4.45217 11.9125 5.04566 12.3501 5.48325C12.7877 5.92083 13.3812 6.16667 14 6.16667C14.6188 6.16667 15.2123 5.92083 15.6499 5.48325C16.0875 5.04566 16.3333 4.45217 16.3333 3.83333C16.3333 3.21449 16.0875 2.621 15.6499 2.18342C15.2123 1.74583 14.6188 1.5 14 1.5ZM14 2.66667C14.3094 2.66667 14.6062 2.78958 14.825 3.00838C15.0438 3.22717 15.1667 3.52391 15.1667 3.83333C15.1667 4.14275 15.0438 4.4395 14.825 4.65829C14.6062 4.87708 14.3094 5 14 5C13.6906 5 13.3938 4.87708 13.175 4.65829C12.9562 4.4395 12.8333 4.14275 12.8333 3.83333C12.8333 3.52391 12.9562 3.22717 13.175 3.00838C13.3938 2.78958 13.6906 2.66667 14 2.66667ZM14 15.15C14 19.21 10.8663 22.5 7 22.5C3.13367 22.5 0 19.21 0 15.15C0 11.9372 4.38354 5.26132 6.21287 2.61525C6.59815 2.05795 7.40185 2.05796 7.78713 2.61525C9.61647 5.26132 14 11.9372 14 15.15Z" fill="white"/>
</svg>
