<svg width="17" height="17" viewBox="0 0 17 17" fill="none" xmlns="http://www.w3.org/2000/svg">
<g clip-path="url(#clip0_311_7959)">
<path d="M8.00109 13.637C7.85326 13.637 7.70543 13.5815 7.59456 13.4891C7.40978 13.3413 7.31739 13.1011 7.37283 12.8609L8.27826 8.2413L7.77935 8.51848C7.46522 8.68478 7.07717 8.59239 6.89239 8.27826C6.72609 7.96413 6.81848 7.57609 7.13261 7.3913L8.85109 6.41196C9.07283 6.28261 9.35 6.30109 9.55326 6.44891C9.75652 6.59674 9.84891 6.85544 9.81196 7.09565L8.86957 11.9L9.64565 11.5674C9.97826 11.4196 10.3478 11.5674 10.4957 11.9C10.6435 12.2326 10.4957 12.6022 10.163 12.75L8.25978 13.5815C8.18587 13.6185 8.09348 13.637 8.00109 13.637ZM9.83043 4.80435C9.99674 4.63804 10.1076 4.39783 10.1076 4.15761C10.1076 3.91739 10.0152 3.67717 9.83043 3.51087C9.66413 3.34457 9.42391 3.2337 9.1837 3.2337C8.94348 3.2337 8.70326 3.32609 8.53696 3.51087C8.37065 3.67717 8.25978 3.91739 8.25978 4.15761C8.25978 4.39783 8.35217 4.63804 8.53696 4.80435C8.70326 4.97065 8.94348 5.08152 9.1837 5.08152C9.42391 5.08152 9.66413 4.98913 9.83043 4.80435ZM17 8.5C17 3.80652 13.1935 0 8.5 0C3.80652 0 0 3.80652 0 8.5C0 13.1935 3.80652 17 8.5 17C13.1935 17 17 13.1935 17 8.5ZM15.5217 8.5C15.5217 12.3804 12.3804 15.5217 8.5 15.5217C4.61957 15.5217 1.47826 12.3804 1.47826 8.5C1.47826 4.61957 4.61957 1.47826 8.5 1.47826C12.3804 1.47826 15.5217 4.61957 15.5217 8.5Z" fill="white"/>
</g>
<defs>
<clipPath id="clip0_311_7959">
<rect width="17" height="17" fill="white"/>
</clipPath>
</defs>
</svg>
