<svg width="25" height="25" viewBox="0 0 25 25" fill="none" xmlns="http://www.w3.org/2000/svg">
<g clip-path="url(#clip0_305_7942)">
<path d="M16.1458 22.5693C15.8235 22.5693 15.5144 22.4413 15.2865 22.2134C15.0586 21.9855 14.9305 21.6764 14.9305 21.3541V14.0624C14.9305 13.7401 15.0586 13.431 15.2865 13.2031C15.5144 12.9752 15.8235 12.8471 16.1458 12.8471C16.4681 12.8471 16.7772 12.9752 17.0052 13.2031C17.2331 13.431 17.3611 13.7401 17.3611 14.0624V21.3541C17.3611 21.6764 17.2331 21.9855 17.0052 22.2134C16.7772 22.4413 16.4681 22.5693 16.1458 22.5693ZM8.85416 22.5693C8.53185 22.5693 8.22274 22.4413 7.99483 22.2134C7.76692 21.9855 7.63888 21.6764 7.63888 21.3541V14.0624C7.63888 13.7401 7.76692 13.431 7.99483 13.2031C8.22274 12.9752 8.53185 12.8471 8.85416 12.8471C9.17647 12.8471 9.48558 12.9752 9.71349 13.2031C9.9414 13.431 10.0694 13.7401 10.0694 14.0624V21.3541C10.0694 21.6764 9.9414 21.9855 9.71349 22.2134C9.48558 22.4413 9.17647 22.5693 8.85416 22.5693ZM12.5 24.9999C12.1777 24.9999 11.8686 24.8719 11.6407 24.644C11.4128 24.416 11.2847 24.1069 11.2847 23.7846V16.493C11.2847 16.1706 11.4128 15.8615 11.6407 15.6336C11.8686 15.4057 12.1777 15.2777 12.5 15.2777C12.8223 15.2777 13.1314 15.4057 13.3593 15.6336C13.5872 15.8615 13.7153 16.1706 13.7153 16.493V23.7846C13.7153 24.1069 13.5872 24.416 13.3593 24.644C13.1314 24.8719 12.8223 24.9999 12.5 24.9999ZM5.20832 17.7082C2.52742 17.7082 0.347214 15.528 0.347214 12.8471C0.348468 11.7694 0.707183 10.7226 1.36716 9.87064C2.02714 9.01867 2.95109 8.4097 3.99426 8.13914L3.99305 7.98601C3.99305 3.96466 7.26336 0.694345 11.2847 0.694345C12.7946 0.692024 14.2677 1.16086 15.4985 2.0355C16.7293 2.91014 17.6566 4.14701 18.151 5.57369C21.7191 5.27716 24.6528 8.14157 24.6528 11.6318C24.6506 12.9604 24.2141 14.2517 23.4097 15.3091C22.6054 16.3664 21.4773 17.1317 20.1976 17.4883C20.0421 17.5363 19.8786 17.5526 19.7168 17.5362C19.5549 17.5199 19.398 17.4712 19.2553 17.3931C19.1126 17.315 18.987 17.209 18.8861 17.0814C18.7851 16.9539 18.7108 16.8073 18.6675 16.6505C18.6242 16.4937 18.6128 16.3298 18.634 16.1685C18.6553 16.0072 18.7087 15.8518 18.7911 15.7116C18.8735 15.5713 18.9832 15.449 19.1137 15.3519C19.2443 15.2548 19.393 15.185 19.551 15.1464C20.3185 14.9318 20.9948 14.4723 21.477 13.8379C21.9592 13.2034 22.2209 12.4288 22.2222 11.6318C22.2222 9.62177 20.5865 7.98601 18.5764 7.98601C18.2823 7.98601 17.97 8.03584 17.5908 8.144L16.2856 8.51587L16.0608 7.17664C15.8745 6.04456 15.292 5.01554 14.4171 4.27334C13.5422 3.53115 12.432 3.1241 11.2847 3.1249C10.5633 3.1257 9.85105 3.28691 9.19958 3.59686C8.54812 3.9068 7.97373 4.35773 7.51799 4.91699C7.06225 5.47625 6.73657 6.12986 6.56453 6.83048C6.39249 7.5311 6.37839 8.26121 6.52326 8.96796L6.82464 10.4287L5.09652 10.4093C3.86787 10.4166 2.77777 11.5067 2.77777 12.8471C2.77777 14.1876 3.86787 15.2777 5.20832 15.2777C5.53064 15.2777 5.83975 15.4057 6.06766 15.6336C6.29556 15.8615 6.4236 16.1706 6.4236 16.493C6.4236 16.8153 6.29556 17.1244 6.06766 17.3523C5.83975 17.5802 5.53064 17.7082 5.20832 17.7082Z" fill="white"/>
</g>
<defs>
<clipPath id="clip0_305_7942">
<rect width="25" height="25" fill="white"/>
</clipPath>
</defs>
</svg>
