<svg width="26" height="26" viewBox="0 0 26 26" fill="none" xmlns="http://www.w3.org/2000/svg">
<path d="M18.4167 15.1664H7.58334C7.58334 13.7298 8.15403 12.352 9.16985 11.3362C10.1857 10.3204 11.5634 9.74971 13 9.74971C14.4366 9.74971 15.8144 10.3204 16.8302 11.3362C17.846 12.352 18.4167 13.7298 18.4167 15.1664ZM23.8333 18.4164H2.16668C1.87936 18.4164 1.60381 18.5305 1.40064 18.7337C1.19748 18.9368 1.08334 19.2124 1.08334 19.4997C1.08334 19.787 1.19748 20.0626 1.40064 20.2657C1.60381 20.4689 1.87936 20.583 2.16668 20.583H23.8333C24.1207 20.583 24.3962 20.4689 24.5994 20.2657C24.8025 20.0626 24.9167 19.787 24.9167 19.4997C24.9167 19.2124 24.8025 18.9368 24.5994 18.7337C24.3962 18.5305 24.1207 18.4164 23.8333 18.4164ZM19.5 22.7497H6.50001C6.21269 22.7497 5.93714 22.8638 5.73398 23.067C5.53081 23.2702 5.41668 23.5457 5.41668 23.833C5.41668 24.1204 5.53081 24.3959 5.73398 24.5991C5.93714 24.8022 6.21269 24.9164 6.50001 24.9164H19.5C19.7873 24.9164 20.0629 24.8022 20.266 24.5991C20.4692 24.3959 20.5833 24.1204 20.5833 23.833C20.5833 23.5457 20.4692 23.2702 20.266 23.067C20.0629 22.8638 19.7873 22.7497 19.5 22.7497ZM13 7.58305C13.2873 7.58305 13.5629 7.46891 13.766 7.26575C13.9692 7.06258 14.0833 6.78703 14.0833 6.49971V4.78165L14.4008 5.09896C14.6051 5.2963 14.8787 5.40549 15.1628 5.40303C15.4468 5.40056 15.7185 5.28662 15.9194 5.08577C16.1203 4.88491 16.2342 4.61319 16.2367 4.32915C16.2391 4.0451 16.1299 3.77145 15.9326 3.56713L13.7659 1.40046C13.6654 1.29982 13.546 1.21999 13.4146 1.16552C13.2831 1.11104 13.1423 1.08301 13 1.08301C12.8577 1.08301 12.7169 1.11104 12.5855 1.16552C12.454 1.21999 12.3346 1.29982 12.2341 1.40046L10.0674 3.56713C9.87009 3.77145 9.7609 4.0451 9.76336 4.32915C9.76583 4.61319 9.87976 4.88491 10.0806 5.08577C10.2815 5.28662 10.5532 5.40056 10.8372 5.40303C11.1213 5.40549 11.3949 5.2963 11.5993 5.09896L11.9167 4.78165V6.49971C11.9167 6.78703 12.0308 7.06258 12.234 7.26575C12.4371 7.46891 12.7127 7.58305 13 7.58305ZM19.8947 9.80388L21.4265 8.27194C21.53 8.172 21.6125 8.05246 21.6693 7.92029C21.7261 7.78812 21.7559 7.64597 21.7572 7.50212C21.7584 7.35828 21.731 7.21563 21.6766 7.08249C21.6221 6.94935 21.5416 6.82839 21.4399 6.72668C21.3382 6.62496 21.2173 6.54452 21.0841 6.49005C20.951 6.43558 20.8083 6.40817 20.6645 6.40942C20.5206 6.41067 20.3785 6.44055 20.2463 6.49733C20.1141 6.5541 19.9946 6.63664 19.8947 6.7401L18.3625 8.27172C18.2619 8.37232 18.1821 8.49176 18.1277 8.6232C18.0732 8.75465 18.0452 8.89553 18.0452 9.0378C18.0452 9.32514 18.1593 9.6007 18.3625 9.80388C18.5657 10.0071 18.8413 10.1212 19.1286 10.1212C19.2709 10.1212 19.4117 10.0932 19.5432 10.0387C19.6746 9.98428 19.7941 9.90448 19.8947 9.80388ZM23.8333 12.9997H21.6667C21.3794 12.9997 21.1038 13.1138 20.9006 13.317C20.6975 13.5202 20.5833 13.7957 20.5833 14.083C20.5833 14.3704 20.6975 14.6459 20.9006 14.8491C21.1038 15.0522 21.3794 15.1664 21.6667 15.1664H23.8333C24.1207 15.1664 24.3962 15.0522 24.5994 14.8491C24.8025 14.6459 24.9167 14.3704 24.9167 14.083C24.9167 13.7957 24.8025 13.5202 24.5994 13.317C24.3962 13.1138 24.1207 12.9997 23.8333 12.9997ZM2.16668 15.1664H4.33334C4.62066 15.1664 4.89621 15.0522 5.09938 14.8491C5.30254 14.6459 5.41668 14.3704 5.41668 14.083C5.41668 13.7957 5.30254 13.5202 5.09938 13.317C4.89621 13.1138 4.62066 12.9997 4.33334 12.9997H2.16668C1.87936 12.9997 1.60381 13.1138 1.40064 13.317C1.19748 13.5202 1.08334 13.7957 1.08334 14.083C1.08334 14.3704 1.19748 14.6459 1.40064 14.8491C1.60381 15.0522 1.87936 15.1664 2.16668 15.1664ZM7.63751 8.27172L6.10535 6.73989C5.90103 6.54255 5.62738 6.43336 5.34333 6.43582C5.05929 6.43829 4.78757 6.55223 4.58672 6.75308C4.38586 6.95394 4.27192 7.22566 4.26946 7.5097C4.26699 7.79375 4.37618 8.0674 4.57352 8.27172L6.10535 9.80388C6.30853 10.0071 6.5841 10.1212 6.87143 10.1212C7.15877 10.1212 7.43433 10.0071 7.63751 9.80388C7.84069 9.6007 7.95483 9.32514 7.95483 9.0378C7.95483 8.75046 7.84069 8.4749 7.63751 8.27172Z" fill="#FFDF24"/>
</svg>
