<svg width="27" height="17" viewBox="0 0 27 17" fill="none" xmlns="http://www.w3.org/2000/svg">
<g clip-path="url(#clip0_257_7855)">
<path d="M13.5 12.7218C11.025 12.7218 9 10.8218 9 8.49957C9 6.17734 11.025 4.27734 13.5 4.27734C15.975 4.27734 18 6.17734 18 8.49957C18 10.8218 15.975 12.7218 13.5 12.7218ZM13.5 6.38845C12.2625 6.38845 11.25 7.33845 11.25 8.49957C11.25 9.66068 12.2625 10.6107 13.5 10.6107C14.7375 10.6107 15.75 9.66068 15.75 8.49957C15.75 7.33845 14.7375 6.38845 13.5 6.38845Z" fill="white"/>
<path d="M13.4999 16.9446C5.06245 16.9446 0.337445 9.34455 0.112445 9.02789C-0.112555 8.71122 -0.112555 8.289 0.112445 7.97233C0.337445 7.65566 5.06245 0.0556641 13.4999 0.0556641C21.9374 0.0556641 26.6624 7.65566 26.8874 7.97233C27.1124 8.289 27.1124 8.71122 26.8874 9.02789C26.6624 9.34455 21.9374 16.9446 13.4999 16.9446ZM2.47495 8.50011C3.59995 10.0834 7.53745 14.8334 13.4999 14.8334C19.4624 14.8334 23.3999 10.0834 24.5249 8.50011C23.3999 6.91678 19.4624 2.16678 13.4999 2.16678C7.53745 2.16678 3.59995 6.91678 2.47495 8.50011Z" fill="white"/>
</g>
<defs>
<clipPath id="clip0_257_7855">
<rect width="27" height="17" fill="white"/>
</clipPath>
</defs>
</svg>
