<svg width="24" height="23" viewBox="0 0 24 23" fill="none" xmlns="http://www.w3.org/2000/svg">
<path d="M1.5 9.15971H19.6135C21.8254 9.15971 23.625 7.43514 23.625 5.31538C23.625 3.19528 21.8254 1.4707 19.6135 1.4707H17.4148C16.7937 1.4707 16.2898 1.95326 16.2898 2.54883C16.2898 3.14439 16.7937 3.62695 17.4148 3.62695H19.6135C20.5847 3.62695 21.375 4.38431 21.375 5.31538C21.375 6.24611 20.5847 7.00346 19.6135 7.00346H1.5C0.878902 7.00346 0.375 7.48602 0.375 8.08159C0.375 8.67715 0.87891 9.15971 1.5 9.15971ZM19.957 10.5726H12.4336C11.8125 10.5726 11.3086 11.0552 11.3086 11.6508C11.3086 12.2463 11.8125 12.7289 12.4336 12.7289H19.957C20.6814 12.7289 21.2703 13.2936 21.2703 13.9874C21.2703 14.6812 20.6814 15.2456 19.957 15.2456H18.0879C17.4668 15.2456 16.9629 15.7281 16.9629 16.3237C16.9629 16.9193 17.4668 17.4018 18.0879 17.4018H19.957C21.9221 17.4018 23.5203 15.8703 23.5203 13.9874C23.5203 12.1046 21.9221 10.5726 19.957 10.5726ZM11.8337 15.2456H7.09937C6.47827 15.2456 5.97436 15.7281 5.97436 16.3237C5.97436 16.9193 6.47828 17.4018 7.09937 17.4018H11.8337C12.4006 17.4018 12.8621 17.844 12.8621 18.3873C12.8621 18.9306 12.4006 19.3728 11.8337 19.3728H10.689C10.0679 19.3728 9.56396 19.8553 9.56396 20.4509C9.56396 21.0465 10.0679 21.529 10.689 21.529H11.8337C13.6414 21.529 15.1121 20.1196 15.1121 18.3873C15.1121 16.655 13.6414 15.2456 11.8337 15.2456ZM10.1982 11.6508C10.1982 11.0552 9.69434 10.5726 9.07325 10.5726H5.57227C4.95117 10.5726 4.44727 11.0552 4.44727 11.6508C4.44727 12.2463 4.95118 12.7289 5.57227 12.7289H9.07325C9.69434 12.7289 10.1982 12.2463 10.1982 11.6508ZM3.69873 15.2456H1.5C0.878902 15.2456 0.375 15.7281 0.375 16.3237C0.375 16.9193 0.87891 17.4018 1.5 17.4018H3.69873C4.31983 17.4018 4.82373 16.9193 4.82373 16.3237C4.82373 15.7281 4.31983 15.2456 3.69873 15.2456Z" fill="white"/>
</svg>
