<svg width="122" height="105" viewBox="0 0 122 105" fill="none" xmlns="http://www.w3.org/2000/svg">
<path d="M82.7783 19.0283C76.3729 19.0263 70.0884 20.7611 64.6018 24.0457C59.1152 27.3304 54.6344 32.0404 51.6423 37.6683C47.9708 35.5352 43.854 34.2717 39.6114 33.9758C35.3689 33.68 31.1148 34.3598 27.1795 35.9625C23.2442 37.5651 19.7335 40.0476 16.9202 43.217C14.1068 46.3864 12.0664 50.1575 10.9574 54.2375C9.84841 58.3175 9.70066 62.5966 10.5256 66.7426C11.3506 70.8885 13.1261 74.7898 15.7142 78.1434C18.3023 81.4969 21.6335 84.2126 25.449 86.0796C29.2645 87.9465 33.4617 88.9145 37.7147 88.9083L82.7783 89.0283C92.1197 89.0283 101.078 85.3408 107.684 78.7771C114.289 72.2133 118 63.3109 118 54.0283C118 44.7457 114.289 35.8434 107.684 29.2796C101.078 22.7158 92.1197 19.0283 82.7783 19.0283Z" fill="url(#paint0_linear_239_5124)"/>
<path d="M45.267 88.2774C59.9699 84.1694 68.5589 68.9202 64.451 54.2172C60.3431 39.5142 45.0939 30.9253 30.3909 35.0332C15.6879 39.1411 7.09892 54.3903 11.2068 69.0933C15.3147 83.7963 30.564 92.3853 45.267 88.2774Z" fill="url(#paint1_linear_239_5124)"/>
<defs>
<linearGradient id="paint0_linear_239_5124" x1="91.6743" y1="92.0083" x2="49.5624" y2="37.1311" gradientUnits="userSpaceOnUse">
<stop stop-color="#F2F2F2"/>
<stop offset="1" stop-color="#CFCFCF"/>
</linearGradient>
<linearGradient id="paint1_linear_239_5124" x1="26.5206" y1="51.8109" x2="58.5471" y2="79.7036" gradientUnits="userSpaceOnUse">
<stop offset="0.02" stop-color="white"/>
<stop offset="1" stop-color="white" stop-opacity="0"/>
</linearGradient>
</defs>
</svg>
