<svg width="104" height="101" viewBox="0 0 104 101" fill="none" xmlns="http://www.w3.org/2000/svg">
<g clip-path="url(#clip0_239_5141)">
<path d="M33.8413 12C40.0074 11.9981 46.0572 13.6786 51.3389 16.8606C56.6206 20.0426 60.934 24.6054 63.8144 30.0575C67.3523 27.9891 71.3197 26.7648 75.408 26.4798C79.4963 26.1949 83.5951 26.857 87.3858 28.4146C91.1764 29.9722 94.5566 32.3834 97.2634 35.4605C99.9701 38.5376 101.93 42.1977 102.992 46.1561C104.053 50.1144 104.187 54.2643 103.383 58.2828C102.579 62.3013 100.859 66.0802 98.356 69.3254C95.8533 72.5706 92.6355 75.1946 88.9532 76.9934C85.2708 78.7921 81.2231 79.7171 77.125 79.6963L33.7444 79.8125C24.7519 79.8125 16.1277 76.2402 9.76905 69.8816C3.41039 63.5229 -0.161865 54.8987 -0.161865 45.9062C-0.161865 36.9138 3.41039 28.2896 9.76905 21.9309C16.1277 15.5723 24.7519 12 33.7444 12H33.8413Z" fill="url(#paint0_linear_239_5141)"/>
<path d="M102.889 60.233C106.848 46.0625 98.5703 31.3655 84.3998 27.4064C70.2292 23.4472 55.5322 31.7252 51.5731 45.8957C47.6139 60.0662 55.8919 74.7632 70.0624 78.7224C84.2329 82.6815 98.9299 74.4036 102.889 60.233Z" fill="url(#paint1_linear_239_5141)"/>
<path d="M61.315 88.7251H81.1163" stroke="#A5A9AA" stroke-width="5" stroke-miterlimit="10" stroke-linecap="round"/>
<path d="M18.8837 88.7251H51.4337" stroke="#B9C1C6" stroke-width="5" stroke-miterlimit="10" stroke-linecap="round"/>
<path d="M52.3831 98.4126H74.3156" stroke="#A5A9AA" stroke-width="5" stroke-miterlimit="10" stroke-linecap="round"/>
<path d="M26.6725 98.4126H41.5719" stroke="#A5A9AA" stroke-width="5" stroke-miterlimit="10" stroke-linecap="round"/>
</g>
<defs>
<linearGradient id="paint0_linear_239_5141" x1="25.2969" y1="82.6994" x2="66.1588" y2="29.7863" gradientUnits="userSpaceOnUse">
<stop stop-color="#F2F2F2"/>
<stop offset="1" stop-color="#CFCFCF"/>
</linearGradient>
<linearGradient id="paint1_linear_239_5141" x1="88.1247" y1="43.5952" x2="57.2633" y2="70.4591" gradientUnits="userSpaceOnUse">
<stop offset="0.02" stop-color="white"/>
<stop offset="1" stop-color="white" stop-opacity="0"/>
</linearGradient>
<clipPath id="clip0_239_5141">
<rect width="104" height="101" fill="white"/>
</clipPath>
</defs>
</svg>
