<svg width="93" height="105" viewBox="0 0 93 105" fill="none" xmlns="http://www.w3.org/2000/svg">
<g clip-path="url(#clip0_240_5433)">
<path d="M74.845 32.8979C71.3435 32.6209 67.9503 31.5779 64.9162 29.846C61.8822 28.1141 59.2847 25.7376 57.3159 22.8919C55.3471 20.0463 54.0572 16.8044 53.5415 13.4057C53.0258 10.007 53.2975 6.53842 54.3365 3.25622C54.3894 3.06939 54.3852 2.87147 54.3244 2.68696C54.2635 2.50245 54.1486 2.33945 53.994 2.21812C53.8394 2.09679 53.6518 2.02246 53.4545 2.00434C53.2571 1.98622 53.0586 2.02509 52.8836 2.11615C49.7413 3.85855 47.0531 6.28745 45.0287 9.21336C43.0042 12.1393 41.6983 15.4831 41.2128 18.9839C40.7273 22.4848 41.0753 26.048 42.2296 29.3956C43.384 32.7433 45.3136 35.7848 47.8678 38.2829C50.422 40.7811 53.5317 42.6683 56.9544 43.7973C60.3772 44.9264 64.0204 45.2668 67.5997 44.7919C71.1791 44.317 74.5979 43.0397 77.5895 41.0597C80.581 39.0797 83.0644 36.4505 84.8459 33.3771C84.9558 33.2051 85.0092 33.0043 84.9987 32.8017C84.9883 32.5991 84.9145 32.4045 84.7875 32.2442C84.6604 32.0839 84.4861 31.9656 84.2881 31.9052C84.0901 31.8449 83.878 31.8453 83.6803 31.9066C80.8266 32.7841 77.8278 33.1205 74.845 32.8979Z" fill="#FFDF24"/>
<path d="M31.0813 25C36.3549 24.9983 41.529 26.4357 46.0462 29.1573C50.5634 31.8788 54.2524 35.7814 56.7159 40.4446C59.7417 38.6755 63.1348 37.6283 66.6313 37.3846C70.1278 37.1409 73.6334 37.7072 76.8754 39.0394C80.1173 40.3716 83.0082 42.4339 85.3232 45.0657C87.6381 47.6976 89.3147 50.8281 90.2225 54.2137C91.1303 57.5992 91.2448 61.1486 90.5572 64.5857C89.8695 68.0227 88.3982 71.2548 86.2577 74.0304C84.1172 76.806 81.3652 79.0503 78.2159 80.5888C75.0665 82.1273 71.6047 82.9184 68.0998 82.9006L30.9984 83C23.3076 83 15.9317 79.9446 10.4934 74.5061C5.05518 69.0675 2 61.6913 2 54C2 46.3087 5.05518 38.9325 10.4934 33.4939C15.9317 28.0553 23.3076 25 30.9984 25H31.0813Z" fill="url(#paint0_linear_240_5433)"/>
<path d="M90.2202 66.0769C93.6171 53.9186 86.5146 41.3086 74.3563 37.9116C62.198 34.5147 49.588 41.6171 46.191 53.7755C42.7941 65.9338 49.8965 78.5438 62.0549 81.9408C74.2132 85.3377 86.8232 78.2352 90.2202 66.0769Z" fill="url(#paint1_linear_240_5433)"/>
<path d="M52 96.676C52 97.5065 51.8319 98.3288 51.5052 99.0961C51.1786 99.8634 50.6998 100.561 50.0962 101.148C49.4926 101.735 48.7761 102.201 47.9874 102.519C47.1988 102.836 46.3536 103 45.5 103C44.6464 103 43.8012 102.836 43.0126 102.519C42.2239 102.201 41.5074 101.735 40.9038 101.148C40.3002 100.561 39.8214 99.8634 39.4948 99.0961C39.1681 98.3288 39 97.5065 39 96.676C39 91.134 44.2419 86 45.5 86C46.7581 86 52 91.1 52 96.676Z" fill="#0877AD"/>
</g>
<defs>
<linearGradient id="paint0_linear_240_5433" x1="23.7737" y1="85.4691" x2="58.7233" y2="40.2144" gradientUnits="userSpaceOnUse">
<stop stop-color="#F2F2F2"/>
<stop offset="1" stop-color="#CFCFCF"/>
</linearGradient>
<linearGradient id="paint1_linear_240_5433" x1="77.5363" y1="51.7971" x2="51.0527" y2="74.8624" gradientUnits="userSpaceOnUse">
<stop offset="0.02" stop-color="white"/>
<stop offset="1" stop-color="white" stop-opacity="0"/>
</linearGradient>
<clipPath id="clip0_240_5433">
<rect width="93" height="105" fill="white"/>
</clipPath>
</defs>
</svg>
