<svg width="86" height="100" viewBox="0 0 86 100" fill="none" xmlns="http://www.w3.org/2000/svg">
<g clip-path="url(#clip0_240_5450)">
<path d="M70.5825 32.7582C67.3993 32.4941 64.3146 31.4996 61.5564 29.8482C58.7981 28.1969 56.4368 25.9308 54.647 23.2176C52.8571 20.5043 51.6845 17.4132 51.2157 14.1726C50.7468 10.932 50.9938 7.62469 51.9384 4.49515C51.9865 4.31701 51.9827 4.1283 51.9274 3.95237C51.872 3.77644 51.7676 3.62102 51.6271 3.50534C51.4865 3.38965 51.316 3.31878 51.1366 3.3015C50.9572 3.28422 50.7767 3.32129 50.6176 3.40811C47.761 5.06947 45.3172 7.3854 43.4768 10.1752C41.6364 12.965 40.4492 16.1533 40.0078 19.4913C39.5664 22.8293 39.8828 26.2268 40.9322 29.4188C41.9816 32.6107 43.7358 35.5108 46.0578 37.8927C48.3797 40.2747 51.2068 42.0741 54.3184 43.1506C57.43 44.2272 60.7419 44.5517 63.9959 44.0989C67.2499 43.6461 70.3579 42.4283 73.0775 40.5404C75.7971 38.6524 78.0547 36.1455 79.6742 33.2151C79.7742 33.0511 79.8227 32.8596 79.8132 32.6664C79.8037 32.4733 79.7366 32.2877 79.6211 32.1349C79.5056 31.982 79.3471 31.8692 79.1672 31.8117C78.9872 31.7541 78.7943 31.7545 78.6146 31.8129C76.0203 32.6496 73.2941 32.9704 70.5825 32.7582Z" fill="#FFDF24"/>
<path d="M29.9351 25.2974C34.8532 25.2958 39.6785 26.6341 43.8911 29.1679C48.1038 31.7018 51.5441 35.3352 53.8415 39.6768C56.6633 38.0297 59.8277 37.0547 63.0885 36.8278C66.3493 36.6009 69.6185 37.1282 72.6419 38.3685C75.6653 39.6089 78.3613 41.5289 80.5202 43.9793C82.6791 46.4296 84.2427 49.3442 85.0893 52.4963C85.9359 55.6484 86.0427 58.953 85.4013 62.153C84.76 65.353 83.3879 68.3621 81.3917 70.9463C79.3955 73.5305 76.8291 75.6201 73.8921 77.0525C70.955 78.4848 67.7266 79.2214 64.458 79.2048L29.8578 79.2974C22.6854 79.2974 15.8068 76.4527 10.7352 71.3892C5.66354 66.3258 2.81433 59.4582 2.81433 52.2974C2.81433 45.1365 5.66354 38.269 10.7352 33.2055C15.8068 28.142 22.6854 25.2974 29.8578 25.2974H29.9351Z" fill="url(#paint0_linear_240_5450)"/>
<path d="M84.8316 63.6658C87.997 52.3363 81.3787 40.5858 70.0492 37.4205C58.7197 34.2551 46.9692 40.8734 43.8038 52.2029C40.6384 63.5324 47.2568 75.2829 58.5863 78.4482C69.9158 81.6136 81.6662 74.9953 84.8316 63.6658Z" fill="url(#paint1_linear_240_5450)"/>
<path d="M43.8143 86.2969V97.2969" stroke="#0877AD" stroke-width="5" stroke-miterlimit="10" stroke-linecap="round"/>
<path d="M33.8143 83.2974V94.2974" stroke="#0877AD" stroke-width="5" stroke-miterlimit="10" stroke-linecap="round"/>
<path d="M52.8143 83.2974V94.2974" stroke="#0877AD" stroke-width="5" stroke-miterlimit="10" stroke-linecap="round"/>
</g>
<defs>
<linearGradient id="paint0_linear_240_5450" x1="23.1201" y1="81.5962" x2="55.6457" y2="39.4102" gradientUnits="userSpaceOnUse">
<stop stop-color="#F2F2F2"/>
<stop offset="1" stop-color="#CFCFCF"/>
</linearGradient>
<linearGradient id="paint1_linear_240_5450" x1="73.0315" y1="50.3487" x2="48.3383" y2="71.8375" gradientUnits="userSpaceOnUse">
<stop offset="0.02" stop-color="white"/>
<stop offset="1" stop-color="white" stop-opacity="0"/>
</linearGradient>
<clipPath id="clip0_240_5450">
<rect width="86" height="100" fill="white"/>
</clipPath>
</defs>
</svg>
