<svg width="97" height="92" viewBox="0 0 97 92" fill="none" xmlns="http://www.w3.org/2000/svg">
<g clip-path="url(#clip0_239_5154)">
<path d="M47.8612 75.5625V77.5625" stroke="#0877AD" stroke-width="5" stroke-miterlimit="10" stroke-linecap="round"/>
<path d="M37.8612 72.5625V73.5625" stroke="#0877AD" stroke-width="5" stroke-miterlimit="10" stroke-linecap="round"/>
<path d="M57.8612 72.5625V73.5625" stroke="#0877AD" stroke-width="5" stroke-miterlimit="10" stroke-linecap="round"/>
<path d="M57.8612 82.5625V84.5625" stroke="#0877AD" stroke-width="5" stroke-miterlimit="10" stroke-linecap="round"/>
<path d="M37.8612 82.5625V84.5625" stroke="#0877AD" stroke-width="5" stroke-miterlimit="10" stroke-linecap="round"/>
<path d="M47.8612 85.5625V87.5625" stroke="#0877AD" stroke-width="5" stroke-miterlimit="10" stroke-linecap="round"/>
<path d="M33.2692 7.5625C38.6021 7.56082 43.8344 9.02298 48.4023 11.7915C52.9702 14.5599 56.7007 18.5298 59.1918 23.2734C62.2517 21.4737 65.6829 20.4085 69.2187 20.1606C72.7545 19.9127 76.2995 20.4887 79.5779 21.8439C82.8562 23.1992 85.7796 25.297 88.1206 27.9742C90.4616 30.6514 92.157 33.8359 93.075 37.2798C93.993 40.7238 94.1088 44.3344 93.4134 47.8307C92.718 51.327 91.2302 54.6148 89.0656 57.4382C86.9011 60.2617 84.1182 62.5448 80.9334 64.1097C77.7487 65.6747 74.248 66.4795 70.7037 66.4614L33.1854 66.5625C25.4082 66.5625 17.9494 63.4545 12.4501 57.9221C6.95072 52.3898 3.86121 44.8864 3.86121 37.0625C3.86121 29.2386 6.95072 21.7352 12.4501 16.2029C17.9494 10.6705 25.4082 7.5625 33.1854 7.5625H33.2692Z" fill="url(#paint0_linear_239_5154)"/>
<path d="M93.4632 49.1932C96.9163 36.8338 89.6964 24.0153 77.3371 20.5621C64.9777 17.109 52.1592 24.3289 48.706 36.6883C45.2529 49.0477 52.4728 61.8662 64.8322 65.3193C77.1916 68.7724 90.0101 61.5525 93.4632 49.1932Z" fill="url(#paint1_linear_239_5154)"/>
</g>
<defs>
<linearGradient id="paint0_linear_239_5154" x1="25.8795" y1="69.0742" x2="61.4844" y2="23.2432" gradientUnits="userSpaceOnUse">
<stop stop-color="#F2F2F2"/>
<stop offset="1" stop-color="#CFCFCF"/>
</linearGradient>
<linearGradient id="paint1_linear_239_5154" x1="80.5696" y1="34.6773" x2="53.6481" y2="58.1239" gradientUnits="userSpaceOnUse">
<stop offset="0.02" stop-color="white"/>
<stop offset="1" stop-color="white" stop-opacity="0"/>
</linearGradient>
<clipPath id="clip0_239_5154">
<rect width="97" height="92" fill="white"/>
</clipPath>
</defs>
</svg>
