<svg width="97" height="92" viewBox="0 0 97 92" fill="none" xmlns="http://www.w3.org/2000/svg">
<g clip-path="url(#clip0_245_5863)">
<path d="M47.8613 75.5625V77.5625" stroke="#0877AD" stroke-width="5" stroke-miterlimit="10" stroke-linecap="round"/>
<path d="M37.8613 72.5625V73.5625" stroke="#0877AD" stroke-width="5" stroke-miterlimit="10" stroke-linecap="round"/>
<path d="M57.8613 72.5625V73.5625" stroke="#0877AD" stroke-width="5" stroke-miterlimit="10" stroke-linecap="round"/>
<path d="M57.8613 82.5625V84.5625" stroke="#0877AD" stroke-width="5" stroke-miterlimit="10" stroke-linecap="round"/>
<path d="M37.8613 82.5625V84.5625" stroke="#0877AD" stroke-width="5" stroke-miterlimit="10" stroke-linecap="round"/>
<path d="M47.8613 85.5625V87.5625" stroke="#0877AD" stroke-width="5" stroke-miterlimit="10" stroke-linecap="round"/>
<path d="M33.2693 7.5625C38.6022 7.56082 43.8345 9.02298 48.4024 11.7915C52.9704 14.5599 56.7009 18.5298 59.192 23.2734C62.2518 21.4737 65.683 20.4085 69.2188 20.1606C72.7546 19.9127 76.2996 20.4887 79.578 21.8439C82.8564 23.1992 85.7798 25.297 88.1207 27.9742C90.4617 30.6514 92.1571 33.8359 93.0751 37.2798C93.9931 40.7238 94.1089 44.3344 93.4135 47.8307C92.7181 51.327 91.2303 54.6148 89.0657 57.4382C86.9012 60.2617 84.1183 62.5448 80.9336 64.1097C77.7488 65.6747 74.2481 66.4795 70.7038 66.4614L33.1856 66.5625C25.4083 66.5625 17.9496 63.4545 12.4502 57.9221C6.95084 52.3898 3.86133 44.8864 3.86133 37.0625C3.86133 29.2386 6.95084 21.7352 12.4502 16.2029C17.9496 10.6705 25.4083 7.5625 33.1856 7.5625H33.2693Z" fill="url(#paint0_linear_245_5863)"/>
<path d="M93.4632 49.1932C96.9163 36.8338 89.6964 24.0153 77.3371 20.5621C64.9777 17.109 52.1592 24.3289 48.706 36.6883C45.2529 49.0477 52.4728 61.8662 64.8322 65.3193C77.1916 68.7724 90.0101 61.5525 93.4632 49.1932Z" fill="url(#paint1_linear_245_5863)"/>
<path d="M45 42V56" stroke="#9C9FA0" stroke-width="2" stroke-miterlimit="10" stroke-linecap="round"/>
<path d="M46 40L44.5064 42L43 40" stroke="#9C9FA0" stroke-width="2" stroke-miterlimit="10" stroke-linecap="round"/>
<path d="M43 58L44.5064 56L46 58" stroke="#9C9FA0" stroke-width="2" stroke-miterlimit="10" stroke-linecap="round"/>
<path d="M51 45L38 53" stroke="#9C9FA0" stroke-width="2" stroke-miterlimit="10" stroke-linecap="round"/>
<path d="M53 46L51 45.5735L51.7312 43" stroke="#9C9FA0" stroke-width="2" stroke-miterlimit="10" stroke-linecap="round"/>
<path d="M36 52L38 52.4118L37.2688 55" stroke="#9C9FA0" stroke-width="2" stroke-miterlimit="10" stroke-linecap="round"/>
<path d="M51 53L38 45" stroke="#9C9FA0" stroke-width="2" stroke-miterlimit="10" stroke-linecap="round"/>
<path d="M51.7312 55L51 52.4118L53 52" stroke="#9C9FA0" stroke-width="2" stroke-miterlimit="10" stroke-linecap="round"/>
<path d="M37.2688 43L38 45.5735L36 46" stroke="#9C9FA0" stroke-width="2" stroke-miterlimit="10" stroke-linecap="round"/>
</g>
<defs>
<linearGradient id="paint0_linear_245_5863" x1="25.8796" y1="69.0742" x2="61.4845" y2="23.2432" gradientUnits="userSpaceOnUse">
<stop stop-color="#F2F2F2"/>
<stop offset="1" stop-color="#CFCFCF"/>
</linearGradient>
<linearGradient id="paint1_linear_245_5863" x1="80.5696" y1="34.6773" x2="53.6481" y2="58.1239" gradientUnits="userSpaceOnUse">
<stop offset="0.02" stop-color="white"/>
<stop offset="1" stop-color="white" stop-opacity="0"/>
</linearGradient>
<clipPath id="clip0_245_5863">
<rect width="97" height="92" fill="white"/>
</clipPath>
</defs>
</svg>
