<svg width="97" height="91" viewBox="0 0 97 91" fill="none" xmlns="http://www.w3.org/2000/svg">
<g clip-path="url(#clip0_245_5887)">
<path d="M47.0103 74.0986V86.0986" stroke="#0877AD" stroke-width="5" stroke-miterlimit="10" stroke-linecap="round"/>
<path d="M37.0103 71.0986V83.0986" stroke="#0877AD" stroke-width="5" stroke-miterlimit="10" stroke-linecap="round"/>
<path d="M57.0103 71.0986V83.0986" stroke="#0877AD" stroke-width="5" stroke-miterlimit="10" stroke-linecap="round"/>
<path d="M32.0915 7.09863C37.3651 7.09698 42.5393 8.53436 47.0564 11.2559C51.5736 13.9775 55.2627 17.8801 57.7261 22.5432C60.7519 20.7741 64.1451 19.7269 67.6416 19.4832C71.1381 19.2395 74.6437 19.8058 77.8856 21.138C81.1276 22.4703 84.0185 24.5325 86.3334 27.1644C88.6484 29.7962 90.325 32.9267 91.2328 36.3123C92.1406 39.6979 92.2551 43.2472 91.5674 46.6843C90.8797 50.1213 89.4084 53.3534 87.2679 56.129C85.1274 58.9046 82.3755 61.149 79.2261 62.6874C76.0768 64.2259 72.615 65.017 69.1101 64.9992L32.0087 65.0986C24.3178 65.0986 16.9419 62.0433 11.5037 56.6047C6.06544 51.1662 3.01025 43.7899 3.01025 36.0986C3.01025 28.4074 6.06544 21.0311 11.5037 15.5925C16.9419 10.154 24.3178 7.09863 32.0087 7.09863H32.0915Z" fill="url(#paint0_linear_245_5887)"/>
<path d="M91.194 48.4618C94.5812 36.3384 87.4991 23.7646 75.3758 20.3775C63.2524 16.9903 50.6787 24.0723 47.2915 36.1957C43.9043 48.3191 50.9864 60.8928 63.1097 64.28C75.2331 67.6672 87.8068 60.5851 91.194 48.4618Z" fill="url(#paint1_linear_245_5887)"/>
<path d="M45 41V55" stroke="#9C9FA0" stroke-width="2" stroke-miterlimit="10" stroke-linecap="round"/>
<path d="M46 39L44.5064 41L43 39" stroke="#9C9FA0" stroke-width="2" stroke-miterlimit="10" stroke-linecap="round"/>
<path d="M43 57L44.5064 55L46 57" stroke="#9C9FA0" stroke-width="2" stroke-miterlimit="10" stroke-linecap="round"/>
<path d="M51 44L38 52" stroke="#9C9FA0" stroke-width="2" stroke-miterlimit="10" stroke-linecap="round"/>
<path d="M53 45L51 44.5735L51.7312 42" stroke="#9C9FA0" stroke-width="2" stroke-miterlimit="10" stroke-linecap="round"/>
<path d="M36 51L38 51.4118L37.2688 54" stroke="#9C9FA0" stroke-width="2" stroke-miterlimit="10" stroke-linecap="round"/>
<path d="M51 52L38 44" stroke="#9C9FA0" stroke-width="2" stroke-miterlimit="10" stroke-linecap="round"/>
<path d="M51.7312 54L51 51.4118L53 51" stroke="#9C9FA0" stroke-width="2" stroke-miterlimit="10" stroke-linecap="round"/>
<path d="M37.2688 42L38 44.5735L36 45" stroke="#9C9FA0" stroke-width="2" stroke-miterlimit="10" stroke-linecap="round"/>
</g>
<defs>
<linearGradient id="paint0_linear_245_5887" x1="24.7839" y1="67.5678" x2="59.7335" y2="22.3131" gradientUnits="userSpaceOnUse">
<stop stop-color="#F2F2F2"/>
<stop offset="1" stop-color="#CFCFCF"/>
</linearGradient>
<linearGradient id="paint1_linear_245_5887" x1="78.5626" y1="34.2275" x2="52.1392" y2="57.222" gradientUnits="userSpaceOnUse">
<stop offset="0.02" stop-color="white"/>
<stop offset="1" stop-color="white" stop-opacity="0"/>
</linearGradient>
<clipPath id="clip0_245_5887">
<rect width="97" height="91" fill="white"/>
</clipPath>
</defs>
</svg>
