<svg width="91" height="97" viewBox="0 0 91 97" fill="none" xmlns="http://www.w3.org/2000/svg">
<g clip-path="url(#clip0_240_5458)">
<path d="M71.0119 32.4161C67.8286 32.1584 64.7439 31.1882 61.9857 29.5771C59.2274 27.966 56.8662 25.7553 55.0763 23.1082C53.2865 20.4611 52.1138 17.4454 51.645 14.2838C51.1762 11.1222 51.4232 7.89561 52.3677 4.8424C52.4159 4.66861 52.412 4.4845 52.3567 4.31286C52.3014 4.14122 52.197 3.98959 52.0564 3.87673C51.9158 3.76386 51.7453 3.69473 51.5659 3.67787C51.3865 3.66101 51.2061 3.69717 51.047 3.78188C48.1903 5.40272 45.7465 7.66215 43.9061 10.3839C42.0657 13.1057 40.8785 16.2162 40.4371 19.4728C39.9957 22.7294 40.3121 26.044 41.3615 29.1581C42.411 32.2722 44.1651 35.1015 46.4871 37.4254C48.8091 39.7492 51.6361 41.5048 54.7477 42.5551C57.8593 43.6054 61.1712 43.922 64.4252 43.4802C67.6792 43.0385 70.7872 41.8503 73.5068 40.0085C76.2264 38.1666 78.484 35.7208 80.1036 32.8618C80.2035 32.7018 80.252 32.515 80.2425 32.3266C80.233 32.1381 80.1659 31.9571 80.0504 31.808C79.9349 31.6589 79.7765 31.5488 79.5965 31.4926C79.4165 31.4365 79.2236 31.4369 79.0439 31.4939C76.4496 32.3102 73.7235 32.6232 71.0119 32.4161Z" fill="#FFDF24"/>
<path d="M30.3644 24.6738C35.2825 24.6723 40.1078 26.0105 44.3204 28.5444C48.5331 31.0783 51.9734 34.7117 54.2708 39.0533C57.0926 37.4061 60.257 36.4312 63.5178 36.2043C66.7786 35.9774 70.0478 36.5046 73.0712 37.745C76.0946 38.9853 78.7907 40.9054 80.9495 43.3557C83.1084 45.8061 84.672 48.7207 85.5186 51.8727C86.3652 55.0248 86.472 58.3294 85.8307 61.5294C85.1894 64.7295 83.8172 67.7386 81.821 70.3228C79.8248 72.907 77.2584 74.9966 74.3214 76.4289C71.3844 77.8613 68.1559 78.5978 64.8873 78.5813L30.2871 78.6738C23.1147 78.6738 16.2361 75.8292 11.1645 70.7657C6.09287 65.7022 3.24365 58.8347 3.24365 51.6738C3.24365 44.513 6.09287 37.6454 11.1645 32.5819C16.2361 27.5185 23.1147 24.6738 30.2871 24.6738H30.3644Z" fill="url(#paint0_linear_240_5458)"/>
<path d="M85.4091 62.9011C88.5472 51.6693 81.9859 40.0202 70.7542 36.8821C59.5224 33.7441 47.8733 40.3053 44.7352 51.5371C41.5971 62.7689 48.1584 74.4179 59.3902 77.556C70.6219 80.6941 82.271 74.1329 85.4091 62.9011Z" fill="url(#paint1_linear_240_5458)"/>
<path d="M43.2437 49.6738V64.6738" stroke="#9C9FA0" stroke-width="2" stroke-miterlimit="10" stroke-linecap="round"/>
<path d="M45.2437 47.6738L43.75 49.6738L42.2437 47.6738" stroke="#9C9FA0" stroke-width="2" stroke-miterlimit="10" stroke-linecap="round"/>
<path d="M42.2437 66.6738L43.75 64.6738L45.2437 66.6738" stroke="#9C9FA0" stroke-width="2" stroke-miterlimit="10" stroke-linecap="round"/>
<path d="M50.2437 53.6738L37.2437 61.6738" stroke="#9C9FA0" stroke-width="2" stroke-miterlimit="10" stroke-linecap="round"/>
<path d="M53.2437 53.6738L50.2437 53.2474L51.3404 50.6738" stroke="#9C9FA0" stroke-width="2" stroke-miterlimit="10" stroke-linecap="round"/>
<path d="M34.2437 60.6738L37.2437 61.0856L36.1469 63.6738" stroke="#9C9FA0" stroke-width="2" stroke-miterlimit="10" stroke-linecap="round"/>
<path d="M50.2437 61.6738L37.2437 53.6738" stroke="#9C9FA0" stroke-width="2" stroke-miterlimit="10" stroke-linecap="round"/>
<path d="M51.3404 63.6738L50.2437 61.0856L53.2437 60.6738" stroke="#9C9FA0" stroke-width="2" stroke-miterlimit="10" stroke-linecap="round"/>
<path d="M36.1469 50.6738L37.2437 53.2474L34.2437 53.6738" stroke="#9C9FA0" stroke-width="2" stroke-miterlimit="10" stroke-linecap="round"/>
<path d="M35.2437 91.6738C36.9005 91.6738 38.2437 90.3307 38.2437 88.6738C38.2437 87.017 36.9005 85.6738 35.2437 85.6738C33.5868 85.6738 32.2437 87.017 32.2437 88.6738C32.2437 90.3307 33.5868 91.6738 35.2437 91.6738Z" fill="#C4C4C4"/>
<path d="M50 95C51.1046 95 52 94.1046 52 93C52 91.8954 51.1046 91 50 91C48.8954 91 48 91.8954 48 93C48 94.1046 48.8954 95 50 95Z" fill="#E0E0E0"/>
<path d="M23 85C24.1046 85 25 84.1046 25 83C25 81.8954 24.1046 81 23 81C21.8954 81 21 81.8954 21 83C21 84.1046 21.8954 85 23 85Z" fill="#E0E0E0"/>
<path d="M43.5 84C44.3284 84 45 83.3284 45 82.5C45 81.6716 44.3284 81 43.5 81C42.6716 81 42 81.6716 42 82.5C42 83.3284 42.6716 84 43.5 84Z" fill="white"/>
<path d="M65.7437 94.6738C66.5721 94.6738 67.2437 94.0023 67.2437 93.1738C67.2437 92.3454 66.5721 91.6738 65.7437 91.6738C64.9152 91.6738 64.2437 92.3454 64.2437 93.1738C64.2437 94.0023 64.9152 94.6738 65.7437 94.6738Z" fill="white"/>
<path d="M21.5 95C22.3284 95 23 94.3284 23 93.5C23 92.6716 22.3284 92 21.5 92C20.6716 92 20 92.6716 20 93.5C20 94.3284 20.6716 95 21.5 95Z" fill="white"/>
<path d="M59 87C60.6569 87 62 85.6569 62 84C62 82.3431 60.6569 81 59 81C57.3431 81 56 82.3431 56 84C56 85.6569 57.3431 87 59 87Z" fill="#C4C4C4"/>
</g>
<defs>
<linearGradient id="paint0_linear_240_5458" x1="23.5494" y1="80.9727" x2="56.075" y2="38.7866" gradientUnits="userSpaceOnUse">
<stop stop-color="#F2F2F2"/>
<stop offset="1" stop-color="#CFCFCF"/>
</linearGradient>
<linearGradient id="paint1_linear_240_5458" x1="73.6959" y1="49.6947" x2="49.2305" y2="71.0023" gradientUnits="userSpaceOnUse">
<stop offset="0.02" stop-color="white"/>
<stop offset="1" stop-color="white" stop-opacity="0"/>
</linearGradient>
<clipPath id="clip0_240_5458">
<rect width="91" height="97" fill="white"/>
</clipPath>
</defs>
</svg>
