<svg width="98" height="85" viewBox="0 0 98 85" fill="none" xmlns="http://www.w3.org/2000/svg">
<path d="M49 18V68" stroke="#B9C1C6" stroke-width="4" stroke-miterlimit="10" stroke-linecap="round"/>
<path d="M55 11L49 18L43 11" stroke="#B9C1C6" stroke-width="4" stroke-miterlimit="10" stroke-linecap="round"/>
<path d="M43 75L49 68L55 75" stroke="#B9C1C6" stroke-width="4" stroke-miterlimit="10" stroke-linecap="round"/>
<path d="M67 25L31 61" stroke="#B9C1C6" stroke-width="4" stroke-miterlimit="10" stroke-linecap="round"/>
<path d="M76 24.9164L66 26L67.0836 16" stroke="#B9C1C6" stroke-width="4" stroke-miterlimit="10" stroke-linecap="round"/>
<path d="M22 61.0836L32 60L30.9164 70" stroke="#B9C1C6" stroke-width="4" stroke-miterlimit="10" stroke-linecap="round"/>
<path d="M74 43H24" stroke="#B9C1C6" stroke-width="4" stroke-miterlimit="10" stroke-linecap="round"/>
<path d="M81 49L74 43L81 37" stroke="#B9C1C6" stroke-width="4" stroke-miterlimit="10" stroke-linecap="round"/>
<path d="M17 37L25 43L17 49" stroke="#B9C1C6" stroke-width="4" stroke-miterlimit="10" stroke-linecap="round"/>
<path d="M67 61L31 25" stroke="#B9C1C6" stroke-width="4" stroke-miterlimit="10" stroke-linecap="round"/>
<path d="M67.0836 70L66 60L76 61.0836" stroke="#B9C1C6" stroke-width="4" stroke-miterlimit="10" stroke-linecap="round"/>
<path d="M30.9164 16L32 26L22 24.9164" stroke="#B9C1C6" stroke-width="4" stroke-miterlimit="10" stroke-linecap="round"/>
<path d="M49.4941 24.2261L31.0869 42.6333L49.4941 61.0405L67.9013 42.6333L49.4941 24.2261Z" stroke="#B9C1C6" stroke-width="4" stroke-miterlimit="10" stroke-linecap="round"/>
</svg>
