<svg width="94" height="80" viewBox="0 0 94 80" fill="none" xmlns="http://www.w3.org/2000/svg">
<path d="M83.5 48.1406C85.9853 48.1406 88 46.1259 88 43.6406C88 41.1553 85.9853 39.1406 83.5 39.1406C81.0147 39.1406 79 41.1553 79 43.6406C79 46.1259 81.0147 48.1406 83.5 48.1406Z" fill="#C4C4C4"/>
<path d="M7 65.1406H89" stroke="#386E97" stroke-width="5" stroke-linecap="round" stroke-linejoin="round"/>
<path d="M18 74.1406H73" stroke="#386E97" stroke-width="5" stroke-linecap="round" stroke-linejoin="round"/>
<path d="M37 14.1406V54.1406C33.4822 49.9736 29.0347 46.653 24 44.4349" stroke="#0877AD" stroke-width="5" stroke-linecap="round" stroke-linejoin="round"/>
<path d="M58 20.1406V54.1406C58 54.1406 63.4211 44.4329 74 44.4022" stroke="#0877AD" stroke-width="5" stroke-linecap="round" stroke-linejoin="round"/>
<path d="M12.5 47.1406C14.9853 47.1406 17 44.902 17 42.1406C17 39.3792 14.9853 37.1406 12.5 37.1406C10.0147 37.1406 8 39.3792 8 42.1406C8 44.902 10.0147 47.1406 12.5 47.1406Z" fill="#C4C4C4"/>
<path d="M47 5.14062V25.1406" stroke="#0877AD" stroke-width="5" stroke-linecap="round" stroke-linejoin="round"/>
<path d="M47 36.1406V50.1406" stroke="#0877AD" stroke-width="5" stroke-linecap="round" stroke-linejoin="round"/>
</svg>
