<svg width="92" height="105" viewBox="0 0 92 105" fill="none" xmlns="http://www.w3.org/2000/svg">
<g clip-path="url(#clip0_239_5363)">
<path d="M54.4004 57.4375C65.7222 57.4375 74.9004 48.2593 74.9004 36.9375C74.9004 25.6157 65.7222 16.4375 54.4004 16.4375C43.0786 16.4375 33.9004 25.6157 33.9004 36.9375C33.9004 48.2593 43.0786 57.4375 54.4004 57.4375Z" fill="#FFDF24"/>
<path d="M54.9004 3.4375V11.4375" stroke="#FFDF24" stroke-width="4" stroke-miterlimit="10" stroke-linecap="round"/>
<path d="M54.9004 61.4375V69.4375" stroke="#FFDF24" stroke-width="4" stroke-miterlimit="10" stroke-linecap="round"/>
<path d="M21.9004 36.4375H29.9004" stroke="#FFDF24" stroke-width="4" stroke-miterlimit="10" stroke-linecap="round"/>
<path d="M79.9004 36.4375H87.9004" stroke="#FFDF24" stroke-width="4" stroke-miterlimit="10" stroke-linecap="round"/>
<path d="M31.9004 13.4375L36.9004 18.4375" stroke="#FFDF24" stroke-width="4" stroke-miterlimit="10" stroke-linecap="round"/>
<path d="M72.9004 54.4375L77.9004 59.4375" stroke="#FFDF24" stroke-width="4" stroke-miterlimit="10" stroke-linecap="round"/>
<path d="M31.9004 59.4375L36.9004 54.4375" stroke="#FFDF24" stroke-width="4" stroke-miterlimit="10" stroke-linecap="round"/>
<path d="M72.9004 18.4375L77.9004 13.4375" stroke="#FFDF24" stroke-width="4" stroke-miterlimit="10" stroke-linecap="round"/>
<path d="M28.2576 26.4376C33.4228 26.427 38.4927 27.8354 42.9194 30.5105C47.346 33.1856 50.9611 37.0257 53.3739 41.6158C56.3299 39.8789 59.6444 38.85 63.0601 38.6091C66.4758 38.3682 69.9008 38.9217 73.0691 40.2268C76.2374 41.5318 79.0639 43.5532 81.3289 46.134C83.594 48.7148 85.2367 51.7856 86.1296 55.1079C87.0224 58.4302 87.1414 61.9146 86.4772 65.2906C85.813 68.6666 84.3836 71.8433 82.2999 74.574C80.2161 77.3048 77.5342 79.5162 74.4623 81.0364C71.3904 82.5566 68.0113 83.3448 64.5872 83.3398L28.2576 83.4375C20.7368 83.4375 13.524 80.4348 8.20601 75.09C2.88801 69.7453 -0.0996094 62.4962 -0.0996094 54.9375C-0.0996094 47.3789 2.88801 40.1298 8.20601 34.785C13.524 29.4402 20.7368 26.4376 28.2576 26.4376Z" fill="url(#paint0_linear_239_5363)"/>
<path d="M86.3714 67.1371C89.7046 55.2069 82.7354 42.8335 70.8052 39.5003C58.875 36.1671 46.5016 43.1363 43.1684 55.0665C39.8352 66.9966 46.8044 79.3701 58.7346 82.7033C70.6647 86.0365 83.0382 79.0673 86.3714 67.1371Z" fill="url(#paint1_linear_239_5363)"/>
<path d="M38.3779 69.4375L34.9004 89.5666H41.8555L38.3779 104.438L54.9004 83.4375H47.08L54.0351 69.4375H38.3779Z" fill="#FFDF24"/>
</g>
<defs>
<linearGradient id="paint0_linear_239_5363" x1="21.0954" y1="85.8641" x2="55.4851" y2="41.555" gradientUnits="userSpaceOnUse">
<stop stop-color="#F2F2F2"/>
<stop offset="1" stop-color="#CFCFCF"/>
</linearGradient>
<linearGradient id="paint1_linear_239_5363" x1="73.9412" y1="53.1297" x2="47.9432" y2="75.742" gradientUnits="userSpaceOnUse">
<stop offset="0.02" stop-color="white"/>
<stop offset="1" stop-color="white" stop-opacity="0"/>
</linearGradient>
<clipPath id="clip0_239_5363">
<rect width="92" height="105" fill="white"/>
</clipPath>
</defs>
</svg>
