<svg width="84" height="93" viewBox="0 0 84 93" fill="none" xmlns="http://www.w3.org/2000/svg">
<g clip-path="url(#clip0_240_5490)">
<path d="M66.999 29.4608C63.8953 29.1967 60.8878 28.2022 58.1985 26.5509C55.5092 24.8995 53.2069 22.6335 51.4618 19.9202C49.7167 17.207 48.5734 14.1158 48.1163 10.8752C47.6592 7.6346 47.9 4.32733 48.821 1.19779C48.8679 1.01965 48.8642 0.83094 48.8102 0.655011C48.7563 0.479081 48.6545 0.323657 48.5174 0.207972C48.3804 0.0922872 48.2141 0.0214194 48.0392 0.00413941C47.8642 -0.0131406 47.6883 0.0239254 47.5332 0.110751C44.748 1.77211 42.3653 4.08803 40.5709 6.87785C38.7765 9.66767 37.619 12.8559 37.1886 16.194C36.7583 19.532 37.0667 22.9295 38.0899 26.1214C39.1131 29.3133 40.8234 32.2134 43.0873 34.5954C45.3513 36.9773 48.1076 38.7767 51.1414 39.8533C54.1752 40.9298 57.4044 41.2543 60.577 40.8016C63.7497 40.3488 66.78 39.1309 69.4316 37.243C72.0832 35.3551 74.2844 32.8481 75.8634 29.9177C75.9608 29.7537 76.0081 29.5622 75.9989 29.369C75.9896 29.1759 75.9242 28.9904 75.8116 28.8375C75.699 28.6847 75.5445 28.5719 75.369 28.5143C75.1935 28.4567 75.0055 28.4572 74.8302 28.5156C72.3008 29.3522 69.6428 29.6731 66.999 29.4608Z" fill="#FFDF24"/>
<path d="M26.794 22C31.6528 21.9985 36.42 23.312 40.5819 25.7989C44.7438 28.2858 48.1427 31.852 50.4124 36.1131C53.2002 34.4965 56.3265 33.5397 59.5479 33.3169C62.7694 33.0942 65.9993 33.6117 68.9863 34.8291C71.9733 36.0465 74.6368 37.931 76.7697 40.3359C78.9026 42.7409 80.4473 45.6015 81.2837 48.6952C82.1201 51.7889 82.2256 55.0323 81.592 58.1731C80.9584 61.3139 79.6028 64.2673 77.6307 66.8036C75.6585 69.34 73.123 71.3908 70.2214 72.7967C67.3197 74.2025 64.1302 74.9254 60.9009 74.9091L26.7176 75C19.6317 75 12.8359 72.208 7.82541 67.2383C2.81489 62.2686 0 55.5282 0 48.5C0 41.4718 2.81489 34.7314 7.82541 29.7617C12.8359 24.792 19.6317 22 26.7176 22H26.794Z" fill="url(#paint0_linear_240_5490)"/>
<path d="M81.5266 60.044C84.6586 48.8341 78.1101 37.2077 66.9002 34.0758C55.6903 30.9438 44.0639 37.4923 40.9319 48.7022C37.8 59.9121 44.3484 71.5385 55.5583 74.6705C66.7682 77.8024 78.3946 71.254 81.5266 60.044Z" fill="url(#paint1_linear_240_5490)"/>
<path d="M41.1298 61L38 79.4038H44.2596L41.1298 93L56 73.8H48.9616L55.2212 61H41.1298Z" fill="#FFDF24"/>
</g>
<defs>
<linearGradient id="paint0_linear_240_5490" x1="20.0611" y1="77.2563" x2="51.9304" y2="35.6489" gradientUnits="userSpaceOnUse">
<stop stop-color="#F2F2F2"/>
<stop offset="1" stop-color="#CFCFCF"/>
</linearGradient>
<linearGradient id="paint1_linear_240_5490" x1="69.8321" y1="46.8782" x2="45.4144" y2="68.1442" gradientUnits="userSpaceOnUse">
<stop offset="0.02" stop-color="white"/>
<stop offset="1" stop-color="white" stop-opacity="0"/>
</linearGradient>
<clipPath id="clip0_240_5490">
<rect width="84" height="93" fill="white"/>
</clipPath>
</defs>
</svg>
