<svg width="276" height="57" viewBox="0 0 276 57" fill="none" xmlns="http://www.w3.org/2000/svg">
<circle cx="28.5" cy="28.5" r="28.5" fill="url(#paint0_linear_142_4202)"/>
<path d="M33.6993 19.6779L34.4216 20.0618C35.1325 20.4395 35.5768 21.1788 35.5768 21.9838V21.9838C35.5768 22.4311 35.439 22.8675 35.1821 23.2337L35.0857 23.3711C34.5788 24.0938 33.7514 24.524 32.8687 24.524H32.5035C31.6907 24.524 30.9046 24.2336 30.2869 23.7053L30.1429 23.5822C29.454 22.993 28.9904 22.1835 28.8309 21.2912L28.7757 20.9825C28.6887 20.4958 28.6773 19.9986 28.7421 19.5084L28.7932 19.1219C28.9788 17.7175 29.5685 16.3973 30.4906 15.3219L30.6663 15.117L31.6402 14.1558C32.522 13.2856 33.5736 12.6062 34.7293 12.1598V12.1598C35.7668 11.7592 36.8693 11.5537 37.9815 11.5537H38.7542L40.5807 11.7888C41.5658 11.9156 42.5115 12.2549 43.3526 12.7831V12.7831C44.5875 13.5586 45.5431 14.7076 46.0806 16.0631L46.2099 16.3894C46.438 16.9644 46.5979 17.5642 46.6865 18.1764L46.7541 18.6433C46.9083 19.7083 46.9179 20.7892 46.7827 21.8567L46.7195 22.3552C46.609 23.2275 46.3892 24.0823 46.0651 24.8997V24.8997C45.5298 26.2498 44.7195 27.4738 43.6857 28.494L43.3383 28.8369C42.8825 29.2867 42.3936 29.7016 41.8757 30.0782L40.9147 30.777C40.2462 31.2632 39.5325 31.6842 38.7837 32.0343V32.0343C37.71 32.5362 36.5724 32.8883 35.4029 33.0806L34.9882 33.1489C34.1303 33.29 33.2624 33.3609 32.393 33.3609H29.573C28.9549 33.3609 28.3379 33.3104 27.728 33.2101V33.2101C26.0495 32.9341 24.4494 32.2813 23.0552 31.3067V31.3067C22.1663 30.6854 21.3674 29.9383 20.6888 29.0923L20.2263 28.5158C19.3943 27.4786 18.7576 26.2987 18.3475 25.0339V25.0339C17.993 23.9406 17.8124 22.7984 17.8124 21.649V20.2481V19.1535C17.8124 17.7264 18.2127 16.3279 18.9678 15.117V15.117M22.2896 17.6825V19.2657C22.2896 20.2017 22.4118 21.1336 22.6529 22.038L22.7032 22.2267C22.9081 22.9948 23.2111 23.7334 23.6047 24.4241V24.4241C24.0732 25.246 24.6649 25.9911 25.3593 26.6336L25.6836 26.9336C26.3044 27.5079 27.0238 27.9653 27.8073 28.2837V28.2837C28.6462 28.6246 29.5433 28.7999 30.4489 28.7999H32.9361C33.8238 28.7999 34.7053 28.6519 35.5443 28.3621V28.3621C36.6129 27.993 37.591 27.4013 38.4139 26.6261L39.9474 25.1816C40.2098 24.9343 40.4378 24.6529 40.6251 24.3448V24.3448C41.0073 23.7162 41.2094 22.9946 41.2094 22.259V19.8209C41.2094 18.9785 41.001 18.1492 40.6028 17.407V17.407C40.1498 16.5625 39.4683 15.8626 38.6362 15.3872L37.1655 14.5468M11.7466 15.117V20.0396C11.7466 21.7843 12.0045 23.5195 12.5119 25.1888L12.5502 25.3146C12.8801 26.3999 13.3215 27.4482 13.8673 28.4426V28.4426C14.5686 29.7203 15.4367 30.8991 16.4489 31.9479L16.9031 32.4186C17.5085 33.0459 18.1588 33.6284 18.8488 34.1613L19.3145 34.521C20.5199 35.4519 21.8663 36.1844 23.3027 36.6907V36.6907C24.547 37.1293 25.846 37.3935 27.1627 37.4761L31.1159 37.7238C33.2078 37.8548 35.3067 37.6268 37.3217 37.0495V37.0495C38.2751 36.7763 39.2048 36.4263 40.1017 36.003L40.3198 35.9001C41.4882 35.3486 42.604 34.6922 43.6535 33.9389L45.2533 32.7907M32.9771 42.3403H35.1625C36.4901 42.3403 37.8099 42.1379 39.0764 41.7402V41.7402C39.9185 41.4758 40.7317 41.1267 41.5034 40.6983L42.6536 40.0598M16.2238 43.9081L19.2567 45.4759V45.4759C20.8884 46.139 22.589 46.6179 24.327 46.9038L25.1781 47.0438M32.8327 47.6139L32.8753 47.6156C35.1318 47.7084 37.3821 47.3191 39.4763 46.4736V46.4736M7.70264 25.6642L8.56919 28.7999L9.08246 30.0029C9.50957 31.004 10.0313 31.962 10.6406 32.8639V32.8639C11.3754 33.9517 12.2332 34.9513 13.1968 35.8429L14.0574 36.6391L16.0632 38.1687C16.843 38.7633 17.6685 39.2956 18.532 39.7604V39.7604C19.7813 40.4329 21.1033 40.9606 22.4723 41.3333L22.6041 41.3692C23.9314 41.7305 25.2927 41.9529 26.666 42.0326L27.0557 42.0552M27.0557 42.0552V42.0552C27.0557 41.5929 26.9042 41.1433 26.6245 40.7752L26.2387 40.2676C26.2063 40.2249 26.1628 40.1919 26.1129 40.1722L24.7449 39.6322M27.0557 42.0552V42.0552C27.0557 42.5 26.8319 42.9151 26.4603 43.1595L25.7934 43.5983C25.7686 43.6146 25.7407 43.6253 25.7114 43.6298L23.8783 43.9081" stroke="white" stroke-width="1.5" stroke-linecap="round"/>
<path d="M80.5108 38.8114C79.0472 38.8114 77.744 38.5527 76.6012 38.0355C75.4583 37.5182 74.5561 36.8147 73.8945 35.9249C73.2329 35.0145 72.8619 34.0007 72.7817 32.8833H77.8643C77.9244 33.4834 78.1951 33.9696 78.6763 34.3421C79.1575 34.7145 79.7489 34.9007 80.4506 34.9007C81.0922 34.9007 81.5834 34.7766 81.9243 34.5283C82.2852 34.2593 82.4656 33.9179 82.4656 33.5041C82.4656 33.0075 82.215 32.6454 81.7138 32.4178C81.2125 32.1695 80.4005 31.9005 79.2778 31.6108C78.0748 31.3211 77.0723 31.0211 76.2703 30.7107C75.4684 30.3797 74.7767 29.8727 74.1952 29.1899C73.6138 28.4864 73.3231 27.545 73.3231 26.3655C73.3231 25.3724 73.5837 24.4723 74.105 23.6653C74.6463 22.8377 75.4283 22.1859 76.4508 21.71C77.4934 21.2341 78.7264 20.9961 80.1499 20.9961C82.2551 20.9961 83.9092 21.5341 85.1121 22.6101C86.3352 23.686 87.0369 25.1137 87.2173 26.8932H82.4656C82.3854 26.2931 82.1248 25.8172 81.6837 25.4655C81.2626 25.1137 80.7013 24.9378 79.9995 24.9378C79.3981 24.9378 78.9369 25.062 78.6161 25.3103C78.2953 25.5379 78.1349 25.8586 78.1349 26.2724C78.1349 26.769 78.3856 27.1415 78.8868 27.3898C79.4081 27.6381 80.2101 27.8864 81.2927 28.1347C82.5358 28.4657 83.5483 28.7968 84.3302 29.1278C85.1121 29.4382 85.7938 29.9555 86.3753 30.6797C86.9767 31.3832 87.2875 32.335 87.3076 33.5351C87.3076 34.549 87.0269 35.4594 86.4655 36.2664C85.9241 37.0526 85.1322 37.6734 84.0896 38.1286C83.0671 38.5838 81.8742 38.8114 80.5108 38.8114Z" fill="white"/>
<path d="M101.311 38.5631L96.198 31.3004V38.5631H91.0553V15.5957H96.198V28.2898L101.281 21.2444H107.626L100.649 29.9348L107.686 38.5631H101.311Z" fill="white"/>
<path d="M127.39 21.2444L116.864 46.7879H111.33L115.18 37.9734L108.353 21.2444H114.097L117.977 32.0764L121.826 21.2444H127.39Z" fill="white"/>
<path d="M134.28 23.8826V33.9075C134.28 34.7352 134.45 35.3249 134.791 35.6767C135.132 36.0077 135.724 36.1732 136.566 36.1732H138.581V38.5631H136.115C134.591 38.5631 133.448 38.201 132.686 37.4768C131.924 36.7526 131.543 35.5628 131.543 33.9075V23.8826H129.408V21.5548H131.543V17.2717H134.28V21.5548H138.581V23.8826H134.28Z" fill="white"/>
<path d="M156.934 29.4072C156.934 29.9451 156.904 30.5142 156.843 31.1142H143.671C143.771 32.7902 144.323 34.1041 145.325 35.0559C146.348 35.987 147.581 36.4526 149.024 36.4526C150.207 36.4526 151.189 36.1732 151.971 35.6146C152.773 35.0352 153.335 34.2696 153.656 33.3178H156.603C156.162 34.9525 155.28 36.287 153.956 37.3216C152.633 38.3355 150.989 38.8424 149.024 38.8424C147.46 38.8424 146.057 38.4803 144.814 37.7561C143.591 37.0319 142.628 36.0077 141.927 34.6835C141.225 33.3385 140.874 31.7867 140.874 30.0279C140.874 28.2691 141.215 26.7276 141.897 25.4034C142.578 24.0792 143.531 23.0653 144.754 22.3618C145.997 21.6376 147.42 21.2755 149.024 21.2755C150.588 21.2755 151.971 21.6272 153.174 22.3307C154.377 23.0342 155.3 24.0067 155.941 25.2482C156.603 26.469 156.934 27.8553 156.934 29.4072ZM154.107 28.8175C154.107 27.7415 153.876 26.8208 153.415 26.0552C152.954 25.2689 152.322 24.6792 151.52 24.2861C150.738 23.8722 149.866 23.6653 148.904 23.6653C147.52 23.6653 146.337 24.1205 145.355 25.031C144.393 25.9414 143.841 27.2035 143.701 28.8175H154.107Z" fill="white"/>
<path d="M163.283 15.5957V38.5631H160.546V15.5957H163.283Z" fill="white"/>
<path d="M170.684 15.5957V38.5631H167.947V15.5957H170.684Z" fill="white"/>
<path d="M190.385 29.4072C190.385 29.9451 190.355 30.5142 190.295 31.1142H177.123C177.223 32.7902 177.774 34.1041 178.777 35.0559C179.799 35.987 181.032 36.4526 182.476 36.4526C183.659 36.4526 184.641 36.1732 185.423 35.6146C186.225 35.0352 186.786 34.2696 187.107 33.3178H190.054C189.613 34.9525 188.731 36.287 187.408 37.3216C186.085 38.3355 184.441 38.8424 182.476 38.8424C180.912 38.8424 179.508 38.4803 178.265 37.7561C177.042 37.0319 176.08 36.0077 175.378 34.6835C174.677 33.3385 174.326 31.7867 174.326 30.0279C174.326 28.2691 174.666 26.7276 175.348 25.4034C176.03 24.0792 176.982 23.0653 178.205 22.3618C179.448 21.6376 180.872 21.2755 182.476 21.2755C184.04 21.2755 185.423 21.6272 186.626 22.3307C187.829 23.0342 188.751 24.0067 189.393 25.2482C190.054 26.469 190.385 27.8553 190.385 29.4072ZM187.558 28.8175C187.558 27.7415 187.328 26.8208 186.867 26.0552C186.405 25.2689 185.774 24.6792 184.972 24.2861C184.19 23.8722 183.318 23.6653 182.355 23.6653C180.972 23.6653 179.789 24.1205 178.807 25.031C177.844 25.9414 177.293 27.2035 177.153 28.8175H187.558Z" fill="white"/>
<path d="M196.734 24.3171C197.216 23.3446 197.897 22.5894 198.779 22.0514C199.682 21.5134 200.774 21.2444 202.058 21.2444V24.1619H201.336C198.268 24.1619 196.734 25.8793 196.734 29.3141V38.5631H193.998V21.5548H196.734V24.3171Z" fill="white"/>
<path d="M206.089 38.7493C205.568 38.7493 205.127 38.5631 204.766 38.1907C204.405 37.8182 204.224 37.363 204.224 36.825C204.224 36.287 204.405 35.8318 204.766 35.4594C205.127 35.0869 205.568 34.9007 206.089 34.9007C206.59 34.9007 207.011 35.0869 207.352 35.4594C207.713 35.8318 207.893 36.287 207.893 36.825C207.893 37.363 207.713 37.8182 207.352 38.1907C207.011 38.5631 206.59 38.7493 206.089 38.7493Z" fill="white"/>
<path d="M210.509 30.0279C210.509 28.2691 210.849 26.738 211.531 25.4344C212.213 24.1102 213.155 23.086 214.358 22.3618C215.581 21.6376 216.975 21.2755 218.538 21.2755C220.563 21.2755 222.228 21.7824 223.531 22.7963C224.854 23.8102 225.726 25.2172 226.147 27.0173H223.2C222.919 25.9828 222.368 25.1654 221.546 24.5654C220.744 23.9654 219.741 23.6653 218.538 23.6653C216.975 23.6653 215.711 24.224 214.749 25.3413C213.787 26.438 213.305 28.0002 213.305 30.0279C213.305 32.0764 213.787 33.6592 214.749 34.7766C215.711 35.8939 216.975 36.4526 218.538 36.4526C219.741 36.4526 220.744 36.1629 221.546 35.5835C222.348 35.0042 222.899 34.1765 223.2 33.1006H226.147C225.706 34.8387 224.824 36.2353 223.501 37.2906C222.177 38.3251 220.523 38.8424 218.538 38.8424C216.975 38.8424 215.581 38.4803 214.358 37.7561C213.155 37.0319 212.213 36.0077 211.531 34.6835C210.849 33.3592 210.509 31.8074 210.509 30.0279Z" fill="white"/>
<path d="M236.987 38.8424C235.443 38.8424 234.039 38.4803 232.776 37.7561C231.533 37.0319 230.551 36.0077 229.829 34.6835C229.127 33.3385 228.776 31.7867 228.776 30.0279C228.776 28.2898 229.137 26.7587 229.859 25.4344C230.601 24.0895 231.603 23.0653 232.866 22.3618C234.13 21.6376 235.543 21.2755 237.107 21.2755C238.671 21.2755 240.084 21.6376 241.347 22.3618C242.61 23.0653 243.603 24.0792 244.325 25.4034C245.066 26.7276 245.437 28.2691 245.437 30.0279C245.437 31.7867 245.056 33.3385 244.295 34.6835C243.553 36.0077 242.54 37.0319 241.257 37.7561C239.974 38.4803 238.55 38.8424 236.987 38.8424ZM236.987 36.3595C237.969 36.3595 238.891 36.1215 239.753 35.6456C240.615 35.1697 241.307 34.4559 241.828 33.5041C242.37 32.5523 242.64 31.3935 242.64 30.0279C242.64 28.6623 242.38 27.5036 241.859 26.5518C241.337 25.6 240.656 24.8965 239.814 24.4413C238.971 23.9654 238.059 23.7274 237.077 23.7274C236.074 23.7274 235.152 23.9654 234.31 24.4413C233.488 24.8965 232.826 25.6 232.325 26.5518C231.824 27.5036 231.573 28.6623 231.573 30.0279C231.573 31.4142 231.814 32.5833 232.295 33.5351C232.796 34.4869 233.458 35.2008 234.28 35.6767C235.102 36.1319 236.004 36.3595 236.987 36.3595Z" fill="white"/>
<path d="M268.855 21.2444C270.138 21.2444 271.281 21.5238 272.283 22.0824C273.285 22.6204 274.077 23.4377 274.659 24.5344C275.24 25.631 275.531 26.9656 275.531 28.5381V38.5631H272.824V28.9416C272.824 27.2449 272.413 25.9517 271.591 25.062C270.789 24.1516 269.697 23.6964 268.313 23.6964C266.89 23.6964 265.757 24.1723 264.915 25.1241C264.073 26.0552 263.652 27.4105 263.652 29.1899V38.5631H260.945V28.9416C260.945 27.2449 260.534 25.9517 259.712 25.062C258.91 24.1516 257.817 23.6964 256.434 23.6964C255.01 23.6964 253.878 24.1723 253.036 25.1241C252.194 26.0552 251.772 27.4105 251.772 29.1899V38.5631H249.036V21.5548H251.772V24.0067C252.314 23.117 253.036 22.4342 253.938 21.9583C254.86 21.4824 255.873 21.2444 256.975 21.2444C258.359 21.2444 259.582 21.5652 260.644 22.2066C261.707 22.848 262.499 23.7895 263.02 25.031C263.481 23.8309 264.243 22.8997 265.306 22.2376C266.368 21.5755 267.551 21.2444 268.855 21.2444Z" fill="white"/>
<defs>
<linearGradient id="paint0_linear_142_4202" x1="28.5" y1="0" x2="28.5" y2="57" gradientUnits="userSpaceOnUse">
<stop stop-color="#225C8F"/>
<stop offset="1" stop-color="#1D82DA"/>
</linearGradient>
</defs>
</svg>
