<svg width="23" height="21" viewBox="0 0 23 21" fill="none" xmlns="http://www.w3.org/2000/svg">
<g clip-path="url(#clip0_257_7853)">
<path fill-rule="evenodd" clip-rule="evenodd" d="M0.0416565 11.5413C0.0416565 5.21308 5.17173 0.0830078 11.5 0.0830078C17.8282 0.0830078 22.9583 5.21308 22.9583 11.5413C22.9583 15.015 21.4113 18.1284 18.9724 20.2282C18.4146 20.7083 17.7188 20.9163 17.0556 20.9163H5.94532C5.28216 20.9163 4.58648 20.7084 4.02876 20.2284C1.58936 18.1287 0.0416565 15.0154 0.0416565 11.5413ZM5.64822 4.21646C6.99694 3.13757 8.65014 2.42345 10.4583 2.22356V4.24967C10.4583 4.82497 10.9247 5.29134 11.5 5.29134C12.0753 5.29134 12.5417 4.82497 12.5417 4.24967V2.22356C16.8871 2.70392 20.3374 6.15424 20.8178 10.4997H18.7917C18.2163 10.4997 17.75 10.966 17.75 11.5413C17.75 12.1167 18.2163 12.583 18.7917 12.583H20.8178C20.5507 15.0011 19.3644 17.1418 17.6131 18.6494C17.4868 18.7581 17.2951 18.833 17.0556 18.833H5.94532C5.70584 18.833 5.51423 18.7582 5.38782 18.6494C3.6362 17.1418 2.44939 15.0012 2.18218 12.583H4.20832C4.78362 12.583 5.24999 12.1167 5.24999 11.5413C5.24999 10.966 4.78362 10.4997 4.20832 10.4997H2.18221C2.38209 8.69155 3.09621 7.03831 4.17508 5.6896L5.55508 7.06961C5.96189 7.4764 6.62143 7.4764 7.02823 7.06961C7.43502 6.66281 7.43502 6.00327 7.02823 5.59647L5.64822 4.21646ZM13.5833 11.5413C13.5833 11.3547 13.5587 11.1738 13.5128 11.0018L16.4032 8.11125C16.81 7.70445 16.81 7.0449 16.4032 6.6381C15.9964 6.23131 15.3369 6.23131 14.9301 6.6381L12.0396 9.52853C11.8675 9.48259 11.6867 9.45801 11.5 9.45801C10.3494 9.45801 9.41666 10.3907 9.41666 11.5413C9.41666 12.692 10.3494 13.6247 11.5 13.6247C12.6506 13.6247 13.5833 12.692 13.5833 11.5413Z" fill="white"/>
</g>
<defs>
<clipPath id="clip0_257_7853">
<rect width="23" height="21" fill="white"/>
</clipPath>
</defs>
</svg>
