<svg width="27" height="27" viewBox="0 0 27 27" fill="none" xmlns="http://www.w3.org/2000/svg">
<g clip-path="url(#clip0_257_7841)">
<path d="M13.5 5.74967C13.8426 5.74967 14.1711 5.61359 14.4134 5.37135C14.6556 5.12912 14.7917 4.80058 14.7917 4.45801V1.87467C14.7917 1.5321 14.6556 1.20356 14.4134 0.961328C14.1711 0.719094 13.8426 0.583008 13.5 0.583008C13.1574 0.583008 12.8289 0.719094 12.5867 0.961328C12.3444 1.20356 12.2083 1.5321 12.2083 1.87467V4.45801C12.2083 4.80058 12.3444 5.12912 12.5867 5.37135C12.8289 5.61359 13.1574 5.74967 13.5 5.74967ZM25.125 12.208H22.5417C22.1991 12.208 21.8706 12.3441 21.6283 12.5863C21.3861 12.8286 21.25 13.1571 21.25 13.4997C21.25 13.8422 21.3861 14.1708 21.6283 14.413C21.8706 14.6553 22.1991 14.7913 22.5417 14.7913H25.125C25.4676 14.7913 25.7961 14.6553 26.0384 14.413C26.2806 14.1708 26.4167 13.8422 26.4167 13.4997C26.4167 13.1571 26.2806 12.8286 26.0384 12.5863C25.7961 12.3441 25.4676 12.208 25.125 12.208ZM5.75001 13.4997C5.75001 13.1571 5.61392 12.8286 5.37169 12.5863C5.12946 12.3441 4.80092 12.208 4.45834 12.208H1.87501C1.53244 12.208 1.2039 12.3441 0.961664 12.5863C0.719429 12.8286 0.583344 13.1571 0.583344 13.4997C0.583344 13.8422 0.719429 14.1708 0.961664 14.413C1.2039 14.6553 1.53244 14.7913 1.87501 14.7913H4.45834C4.80092 14.7913 5.12946 14.6553 5.37169 14.413C5.61392 14.1708 5.75001 13.8422 5.75001 13.4997ZM6.03418 4.45801C5.78239 4.21992 5.44633 4.09161 5.09993 4.1013C4.75354 4.11099 4.42518 4.25788 4.18709 4.50967C3.94901 4.76146 3.82069 5.09752 3.83038 5.44392C3.84007 5.79031 3.98697 6.11867 4.23876 6.35676L6.09876 8.15218C6.22358 8.2727 6.3714 8.36684 6.53341 8.42898C6.69541 8.49112 6.86827 8.51998 7.04168 8.51384C7.21567 8.51318 7.38774 8.47737 7.54755 8.40856C7.70736 8.33975 7.85162 8.23937 7.97168 8.11342C8.21225 7.87142 8.34728 7.54404 8.34728 7.2028C8.34728 6.86156 8.21225 6.53418 7.97168 6.29217L6.03418 4.45801ZM19.9583 8.51384C20.2909 8.51252 20.6101 8.38297 20.8496 8.15218L22.7096 6.35676C22.9365 6.11967 23.0647 5.80511 23.068 5.47696C23.0714 5.14881 22.9498 4.83168 22.7278 4.58998C22.5058 4.34827 22.2002 4.20012 21.8729 4.17561C21.5457 4.1511 21.2213 4.25207 20.9658 4.45801L19.1058 6.29217C18.8653 6.53418 18.7302 6.86156 18.7302 7.2028C18.7302 7.54404 18.8653 7.87142 19.1058 8.11342C19.3295 8.34944 19.6339 8.49242 19.9583 8.51384ZM13.5 21.2497C13.1574 21.2497 12.8289 21.3858 12.5867 21.628C12.3444 21.8702 12.2083 22.1988 12.2083 22.5413V25.1247C12.2083 25.4672 12.3444 25.7958 12.5867 26.038C12.8289 26.2803 13.1574 26.4163 13.5 26.4163C13.8426 26.4163 14.1711 26.2803 14.4134 26.038C14.6556 25.7958 14.7917 25.4672 14.7917 25.1247V22.5413C14.7917 22.1988 14.6556 21.8702 14.4134 21.628C14.1711 21.3858 13.8426 21.2497 13.5 21.2497ZM20.9013 18.8472C20.6546 18.6091 20.3235 18.4787 19.9807 18.4848C19.638 18.4908 19.3116 18.6328 19.0736 18.8795C18.8355 19.1261 18.7051 19.4572 18.7112 19.8C18.7172 20.1428 18.8592 20.4691 19.1058 20.7072L20.9658 22.5413C21.2053 22.7721 21.5245 22.9017 21.8571 22.903C22.0302 22.904 22.2017 22.8702 22.3614 22.8037C22.5212 22.7371 22.6659 22.6391 22.7871 22.5155C22.9082 22.3954 23.0043 22.2526 23.0698 22.0952C23.1354 21.9378 23.1692 21.7689 23.1692 21.5984C23.1692 21.4279 23.1354 21.2591 23.0698 21.1017C23.0043 20.9443 22.9082 20.8014 22.7871 20.6813L20.9013 18.8472ZM6.09876 18.8472L4.23876 20.6426C4.11769 20.7627 4.0216 20.9055 3.95603 21.0629C3.89045 21.2203 3.85669 21.3892 3.85669 21.5597C3.85669 21.7302 3.89045 21.899 3.95603 22.0564C4.0216 22.2138 4.11769 22.3567 4.23876 22.4768C4.35991 22.6004 4.50466 22.6984 4.66442 22.7649C4.82418 22.8315 4.99569 22.8653 5.16876 22.8643C5.48717 22.867 5.79537 22.752 6.03418 22.5413L7.89418 20.7459C8.14083 20.5078 8.2828 20.1815 8.28885 19.8388C8.29491 19.496 8.16456 19.1649 7.92647 18.9182C7.68838 18.6716 7.36206 18.5296 7.0193 18.5235C6.67654 18.5175 6.34541 18.6478 6.09876 18.8859V18.8472ZM13.5 8.33301C12.4781 8.33301 11.4792 8.63603 10.6296 9.20375C9.77991 9.77147 9.11769 10.5784 8.72663 11.5225C8.33558 12.4666 8.23326 13.5054 8.43262 14.5076C8.63198 15.5099 9.12405 16.4305 9.84663 17.1531C10.5692 17.8756 11.4898 18.3677 12.492 18.5671C13.4943 18.7664 14.5331 18.6641 15.4772 18.2731C16.4213 17.882 17.2282 17.2198 17.7959 16.3701C18.3637 15.5205 18.6667 14.5215 18.6667 13.4997C18.6667 12.1294 18.1223 10.8152 17.1534 9.84629C16.1845 8.87735 14.8703 8.33301 13.5 8.33301Z" fill="white"/>
</g>
<defs>
<clipPath id="clip0_257_7841">
<rect width="27" height="27" fill="white"/>
</clipPath>
</defs>
</svg>
